{"glyphs":{"0":{"ha":900,"x_min":0,"x_max":0,"o":"m 796 489 b 450 944 796 728 721 944 b 104 489 185 944 104 721 b 450 33 104 260 183 33 b 796 489 722 33 796 250 m 860 489 b 450 -22 860 214 761 -22 b 40 489 144 -22 40 218 b 450 1000 40 760 146 1000 b 860 489 757 1000 860 761 "},"1":{"ha":592,"x_min":0,"x_max":0,"o":"m 407 0 l 343 0 l 343 868 b 35 742 256 789 139 751 l 35 797 b 351 978 138 801 307 874 l 407 978 "},"2":{"ha":900,"x_min":0,"x_max":0,"o":"m 819 0 l 81 0 b 411 372 103 183 176 239 b 735 710 638 501 735 554 b 446 944 735 860 633 944 b 161 651 242 944 161 833 l 97 651 b 456 1000 101 896 221 1000 b 799 713 689 1000 799 883 b 435 319 799 531 706 475 b 153 56 340 265 153 160 l 819 56 "},"3":{"ha":900,"x_min":0,"x_max":0,"o":"m 400 550 b 742 733 549 550 742 550 b 468 944 742 897 611 944 b 160 672 283 944 160 865 l 96 672 b 468 1000 103 904 246 1000 b 806 743 678 1000 806 908 b 589 528 806 600 715 539 l 589 525 b 831 258 685 521 831 465 b 456 -22 831 96 707 -22 b 69 325 218 -22 74 85 l 133 325 b 463 33 133 121 253 33 b 767 272 599 33 767 76 b 400 494 767 494 533 494 "},"4":{"ha":900,"x_min":0,"x_max":0,"o":"m 121 304 l 593 304 l 593 897 l 590 897 m 589 978 l 657 978 l 657 304 l 843 304 l 843 249 l 657 249 l 657 0 l 593 0 l 593 249 l 57 249 l 57 314 "},"5":{"ha":900,"x_min":0,"x_max":0,"o":"m 210 978 l 775 978 l 775 922 l 260 922 l 176 546 l 179 546 b 465 653 253 619 361 653 b 828 322 689 653 828 517 b 443 -22 828 93 668 -22 b 72 296 240 -22 79 90 l 136 296 b 451 33 151 113 274 33 b 764 319 647 33 764 131 b 451 597 764 451 679 597 b 165 465 310 597 210 528 l 101 465 "},"6":{"ha":900,"x_min":0,"x_max":0,"o":"m 469 597 b 151 319 265 597 151 481 b 467 33 151 218 204 33 b 765 319 640 33 765 146 b 469 597 765 479 661 597 m 747 744 b 471 944 732 890 604 944 b 135 449 171 944 135 683 l 138 449 b 465 653 168 543 274 653 b 829 319 671 653 829 533 b 457 -22 829 124 688 -22 b 71 451 161 -22 71 188 b 482 1000 71 749 133 1000 b 811 744 675 1000 800 896 "},"7":{"ha":824,"x_min":0,"x_max":0,"o":"m 53 978 l 771 978 l 771 915 b 304 0 493 631 360 400 l 232 0 b 707 919 286 360 436 671 l 707 922 l 53 922 "},"8":{"ha":900,"x_min":0,"x_max":0,"o":"m 169 747 b 450 560 169 592 322 560 b 731 750 579 560 731 592 b 450 944 731 904 578 944 b 169 747 314 944 169 908 m 58 265 b 308 532 58 456 204 514 l 308 535 b 106 758 151 568 106 653 b 450 1000 106 950 290 1000 b 794 758 610 1000 794 950 b 592 535 794 653 749 568 l 592 532 b 842 265 696 514 842 456 b 450 -22 842 83 711 -22 b 58 265 189 -22 58 83 m 122 267 b 450 33 122 131 221 33 b 778 267 592 33 778 75 b 450 504 778 417 676 504 b 122 267 226 504 122 417 "},"9":{"ha":900,"x_min":0,"x_max":0,"o":"m 431 381 b 749 658 635 381 749 497 b 433 944 749 760 696 944 b 135 658 260 944 135 832 b 431 381 135 499 239 381 m 153 233 b 429 33 168 88 296 33 b 765 529 729 33 765 294 l 763 529 b 435 325 733 435 625 325 b 71 658 229 325 71 444 b 443 1000 71 851 213 1000 b 829 526 739 1000 829 790 b 418 -22 829 229 767 -22 b 89 233 225 -22 100 82 "}," ":{"ha":308,"x_min":0,"x_max":0,"o":""},"!":{"ha":358,"x_min":0,"x_max":0,"o":"m 143 139 l 215 139 l 215 0 l 143 0 m 143 992 l 215 992 l 215 726 b 203 256 215 569 207 413 l 156 256 b 143 726 151 413 143 569 "},"\"":{"ha":489,"x_min":0,"x_max":0,"o":"m 314 992 l 369 992 l 369 672 l 314 672 m 119 992 l 175 992 l 175 672 l 119 672 "},"#":{"ha":900,"x_min":0,"x_max":0,"o":"m 585 614 l 350 614 l 315 364 l 550 364 m 261 317 l 104 317 l 104 364 l 268 364 l 303 614 l 146 614 l 146 661 l 310 661 l 353 978 l 400 978 l 357 661 l 592 661 l 635 978 l 682 978 l 639 661 l 796 661 l 796 614 l 632 614 l 597 364 l 754 364 l 754 317 l 590 317 l 547 0 l 500 0 l 543 317 l 308 317 l 265 0 l 218 0 "},"$":{"ha":900,"x_min":0,"x_max":0,"o":"m 431 475 l 360 490 b 68 750 150 535 68 597 b 431 1000 68 907 199 999 l 431 1103 l 478 1103 l 478 1000 b 835 701 694 989 828 894 l 771 701 b 478 944 764 810 704 933 l 478 529 l 564 513 b 861 254 757 475 861 410 b 478 -22 861 124 775 -22 l 478 -153 l 431 -153 l 431 -22 b 39 324 147 -7 39 128 l 103 324 b 431 33 104 150 201 44 m 431 944 b 140 744 213 940 140 854 b 431 539 140 615 247 572 m 478 33 b 789 250 706 33 789 136 b 557 447 789 360 738 407 l 478 465 "},"%":{"ha":1286,"x_min":0,"x_max":0,"o":"m 971 1008 l 1026 1008 l 292 -31 l 236 -31 m 965 25 b 1151 246 1099 25 1151 124 b 965 463 1151 368 1099 463 b 779 246 833 463 779 368 b 965 25 779 124 832 25 m 965 -22 b 724 246 801 -22 724 86 b 965 510 724 400 804 510 b 1207 246 1131 510 1207 406 b 965 -22 1207 96 1129 -22 m 321 515 b 507 736 454 515 507 614 b 321 953 507 858 454 953 b 135 736 189 953 135 858 b 321 515 135 614 188 515 m 321 468 b 79 736 157 468 79 576 b 321 1000 79 890 160 1000 b 563 736 486 1000 563 896 b 321 468 563 586 485 468 "},"&":{"ha":1029,"x_min":0,"x_max":0,"o":"m 419 528 b 149 274 264 465 149 406 b 450 33 149 114 283 33 b 786 176 653 33 761 144 m 303 810 b 440 594 303 713 419 613 b 639 801 517 628 639 685 b 471 944 639 911 536 944 b 303 810 357 944 303 875 m 824 225 b 879 404 857 269 879 351 l 943 404 b 865 183 943 326 907 236 l 1058 0 l 967 0 l 828 133 b 443 -22 717 18 606 -22 b 85 272 196 -22 85 124 b 379 567 85 449 263 519 b 239 807 289 664 239 714 b 471 1000 239 879 292 1000 b 703 807 597 1000 703 933 b 478 554 703 663 556 592 "},"’":{"ha":308,"x_min":0,"x_max":0,"o":"m 118 992 l 190 992 l 190 853 b 93 672 190 769 165 701 l 93 719 b 143 832 136 738 143 789 l 143 853 l 118 853 "},"(":{"ha":411,"x_min":0,"x_max":0,"o":"m 321 -264 b 94 364 183 -74 94 129 b 321 992 94 599 183 799 l 376 992 b 167 364 240 775 167 624 b 376 -264 167 103 240 -46 "},")":{"ha":411,"x_min":0,"x_max":0,"o":"m 90 992 b 317 364 226 800 317 600 b 90 -264 317 129 225 -74 l 35 -264 b 244 364 171 -46 244 103 b 35 992 244 624 171 775 "},"*":{"ha":567,"x_min":0,"x_max":0,"o":"m 247 744 l 54 814 l 74 860 l 260 796 l 260 992 l 307 992 l 307 796 l 493 860 l 513 814 l 319 744 l 451 589 l 413 558 l 283 711 l 154 558 l 115 589 "},"+":{"ha":833,"x_min":0,"x_max":0,"o":"m 65 379 l 389 379 l 389 703 l 444 703 l 444 379 l 768 379 l 768 324 l 444 324 l 444 0 l 389 0 l 389 324 l 65 324 "},",":{"ha":308,"x_min":0,"x_max":0,"o":"m 118 139 l 190 139 l 190 0 b 93 -181 190 -83 165 -151 l 93 -133 b 143 -21 136 -115 143 -64 l 143 0 l 118 0 "},"-":{"ha":565,"x_min":0,"x_max":0,"o":"m 104 407 l 461 407 l 461 343 l 104 343 "},".":{"ha":308,"x_min":0,"x_max":0,"o":"m 118 139 l 190 139 l 190 0 l 118 0 "},"/":{"ha":565,"x_min":0,"x_max":0,"o":"m 49 -22 l -15 -22 l 517 1014 l 581 1014 "},":":{"ha":308,"x_min":0,"x_max":0,"o":"m 118 139 l 190 139 l 190 0 l 118 0 m 118 688 l 190 688 l 190 549 l 118 549 "},";":{"ha":308,"x_min":0,"x_max":0,"o":"m 118 688 l 190 688 l 190 549 l 118 549 m 118 139 l 190 139 l 190 0 b 93 -181 190 -83 165 -151 l 93 -133 b 143 -21 136 -115 143 -64 l 143 0 l 118 0 "},"<":{"ha":833,"x_min":0,"x_max":0,"o":"m 65 389 l 768 717 l 768 661 l 113 351 l 768 42 l 768 -14 l 65 317 "},"=":{"ha":833,"x_min":0,"x_max":0,"o":"m 768 189 l 65 189 l 65 244 l 768 244 m 768 458 l 65 458 l 65 514 l 768 514 "},">":{"ha":833,"x_min":0,"x_max":0,"o":"m 65 42 l 721 351 l 65 661 l 65 717 l 768 386 l 768 314 l 65 -14 "},"?":{"ha":875,"x_min":0,"x_max":0,"o":"m 385 139 l 457 139 l 457 0 l 385 0 m 389 256 l 389 288 b 557 533 389 418 428 449 b 715 746 679 615 715 658 b 436 958 715 897 575 958 b 133 686 246 958 135 876 l 69 686 b 428 1014 69 914 217 1014 b 779 750 632 1014 779 931 b 599 492 779 633 729 574 b 453 301 485 418 453 393 l 453 256 "},"@":{"ha":1111,"x_min":0,"x_max":0,"o":"m 786 778 l 850 778 l 710 349 b 693 281 700 322 693 301 b 749 239 693 253 711 239 b 1018 581 865 239 1018 376 b 586 958 1018 799 836 958 b 93 496 286 958 93 751 b 553 33 93 244 300 33 b 908 151 679 33 822 61 l 972 151 b 556 -22 868 17 719 -22 b 38 496 271 -22 38 207 b 581 1014 38 781 258 1014 b 1074 594 876 1014 1074 828 b 739 183 1074 342 875 183 b 638 282 682 183 642 215 l 635 282 b 447 183 586 217 514 183 b 268 392 347 183 268 264 b 596 806 268 589 404 806 b 751 685 668 806 740 758 l 754 685 m 467 231 b 713 596 599 231 713 463 b 590 758 713 722 657 758 b 324 399 433 758 324 540 b 467 231 324 297 385 231 "},"A":{"ha":953,"x_min":0,"x_max":0,"o":"m 228 375 l 725 375 l 476 919 m 440 992 l 513 992 l 968 0 l 896 0 l 750 319 l 203 319 l 57 0 l -15 0 "},"B":{"ha":1003,"x_min":0,"x_max":0,"o":"m 83 992 l 618 992 b 907 747 808 992 907 904 b 713 519 907 649 861 553 l 713 517 b 940 272 906 499 940 357 b 608 0 940 167 882 0 l 83 0 m 147 56 l 594 56 b 876 278 644 56 876 56 b 578 486 876 485 688 486 l 147 486 m 147 542 l 589 542 b 843 743 640 542 843 542 b 579 936 843 938 685 936 l 147 936 "},"C":{"ha":1106,"x_min":0,"x_max":0,"o":"m 1056 376 b 568 -22 1033 188 864 -22 b 40 496 268 -22 40 168 b 568 1014 40 736 204 1014 b 1039 681 807 1014 988 903 l 975 681 b 568 958 926 871 756 958 b 104 496 285 958 104 746 b 568 33 104 247 264 33 b 992 376 788 33 954 161 "},"D":{"ha":1054,"x_min":0,"x_max":0,"o":"m 147 56 l 549 56 b 928 496 767 56 928 190 b 533 936 928 810 768 936 l 147 936 m 83 992 l 547 992 b 992 496 782 992 992 879 b 536 0 992 206 844 0 l 83 0 "},"E":{"ha":900,"x_min":0,"x_max":0,"o":"m 83 992 l 867 992 l 867 936 l 147 936 l 147 542 l 838 542 l 838 486 l 147 486 l 147 56 l 875 56 l 875 0 l 83 0 "},"F":{"ha":824,"x_min":0,"x_max":0,"o":"m 83 992 l 803 992 l 803 936 l 147 936 l 147 542 l 767 542 l 767 486 l 147 486 l 147 0 l 83 0 "},"G":{"ha":1157,"x_min":0,"x_max":0,"o":"m 611 494 l 1074 494 l 1074 0 l 1018 0 l 1018 244 l 1015 244 b 582 -22 942 67 772 -22 b 54 496 282 -22 54 168 b 582 1014 54 736 218 1014 b 1053 681 825 1014 1006 894 l 989 681 b 582 958 947 864 781 958 b 118 496 299 958 118 746 b 582 33 118 247 278 33 b 1010 439 832 33 994 188 l 611 439 "},"H":{"ha":1054,"x_min":0,"x_max":0,"o":"m 83 992 l 147 992 l 147 550 l 907 550 l 907 992 l 971 992 l 971 0 l 907 0 l 907 494 l 147 494 l 147 0 l 83 0 "},"I":{"ha":231,"x_min":0,"x_max":0,"o":"m 83 992 l 147 992 l 147 0 l 83 0 "},"J":{"ha":746,"x_min":0,"x_max":0,"o":"m 97 317 l 97 293 b 351 33 97 204 118 33 b 599 293 522 33 599 122 l 599 992 l 663 992 l 663 299 b 351 -22 663 82 544 -22 b 33 293 190 -22 33 47 l 33 317 "},"K":{"ha":978,"x_min":0,"x_max":0,"o":"m 83 992 l 147 992 l 147 422 l 861 992 l 963 992 l 449 582 l 999 0 l 910 0 l 399 542 l 147 342 l 147 0 l 83 0 "},"L":{"ha":797,"x_min":0,"x_max":0,"o":"m 83 992 l 147 992 l 147 56 l 797 56 l 797 0 l 83 0 "},"M":{"ha":1336,"x_min":0,"x_max":0,"o":"m 90 992 l 186 992 l 668 81 l 1150 992 l 1246 992 l 1246 0 l 1182 0 l 1182 903 l 1179 903 l 700 0 l 636 0 l 157 903 l 154 903 l 154 0 l 90 0 "},"N":{"ha":1054,"x_min":0,"x_max":0,"o":"m 83 992 l 164 992 l 904 89 l 907 89 l 907 992 l 971 992 l 971 0 l 890 0 l 150 903 l 147 903 l 147 0 l 83 0 "},"O":{"ha":1133,"x_min":0,"x_max":0,"o":"m 40 496 b 567 1014 40 689 164 1014 b 1093 496 968 1014 1093 689 b 567 -22 1093 303 968 -22 b 40 496 165 -22 40 303 m 104 496 b 567 33 104 258 268 33 b 1029 496 865 33 1029 258 b 567 958 1029 733 865 958 b 104 496 268 958 104 733 "},"P":{"ha":926,"x_min":0,"x_max":0,"o":"m 147 492 l 589 492 b 838 714 711 492 838 540 b 574 936 838 936 658 936 l 147 936 m 83 992 l 600 992 b 901 717 739 992 901 943 b 590 436 901 550 807 436 l 147 436 l 147 0 l 83 0 "},"Q":{"ha":1133,"x_min":0,"x_max":0,"o":"m 864 57 b 567 -22 788 8 693 -22 b 40 496 165 -22 40 303 b 567 1014 40 689 164 1014 b 1093 496 968 1014 1093 689 b 913 94 1093 375 1044 204 l 1078 -22 l 1044 -71 m 685 256 l 861 129 b 1029 496 972 222 1029 356 b 567 958 1029 733 865 958 b 104 496 268 958 104 733 b 567 33 104 258 268 33 b 810 96 663 33 744 57 l 651 207 "},"R":{"ha":978,"x_min":0,"x_max":0,"o":"m 147 507 l 579 507 b 861 733 642 507 861 507 b 596 936 861 894 736 936 l 147 936 m 83 992 l 590 992 b 925 729 781 992 925 936 b 722 483 925 624 863 517 l 722 481 b 908 275 844 465 907 382 b 936 0 913 92 918 38 l 872 0 b 844 231 854 17 849 79 b 589 451 840 403 785 451 l 147 451 l 147 0 l 83 0 "},"S":{"ha":926,"x_min":0,"x_max":0,"o":"m 103 328 b 483 33 104 143 217 33 b 815 254 728 33 815 138 b 554 458 815 367 761 414 l 369 497 b 69 757 151 542 69 608 b 444 1014 69 906 200 1014 b 860 711 694 1014 853 922 l 796 711 b 463 958 789 825 722 958 b 142 756 221 958 142 869 b 376 560 142 650 188 597 l 581 519 b 888 258 779 479 888 417 b 489 -22 888 124 799 -22 b 39 328 163 -22 39 117 "},"T":{"ha":822,"x_min":0,"x_max":0,"o":"m -21 992 l 843 992 l 843 936 l 443 936 l 443 0 l 379 0 l 379 936 l -21 936 "},"U":{"ha":1028,"x_min":0,"x_max":0,"o":"m 75 992 l 139 992 l 139 369 b 514 33 139 158 240 33 b 889 369 788 33 889 158 l 889 992 l 953 992 l 953 367 b 514 -22 953 110 807 -22 b 75 367 221 -22 75 110 "},"V":{"ha":928,"x_min":0,"x_max":0,"o":"m -12 992 l 60 992 l 464 81 l 868 992 l 940 992 l 500 0 l 428 0 "},"W":{"ha":1414,"x_min":0,"x_max":0,"o":"m -21 992 l 51 992 l 346 89 l 349 89 l 667 992 l 747 992 l 1065 89 l 1068 89 l 1363 992 l 1435 992 l 1108 0 l 1028 0 l 708 903 l 706 903 l 386 0 l 306 0 "},"X":{"ha":900,"x_min":0,"x_max":0,"o":"m 408 504 l 3 992 l 89 992 l 450 554 l 818 992 l 899 992 l 493 504 l 913 0 l 828 0 l 450 456 l 68 0 l -12 0 "},"Y":{"ha":928,"x_min":0,"x_max":0,"o":"m -28 992 l 61 992 l 464 476 l 875 992 l 956 992 l 496 417 l 496 0 l 432 0 l 432 417 "},"Z":{"ha":849,"x_min":0,"x_max":0,"o":"m -7 68 l 772 936 l 39 936 l 39 992 l 844 992 l 844 928 l 65 56 l 856 56 l 856 0 l -7 0 "},"[":{"ha":411,"x_min":0,"x_max":0,"o":"m 133 992 l 364 992 l 364 936 l 197 936 l 197 -208 l 364 -208 l 364 -264 l 133 -264 "},"\\":{"ha":565,"x_min":0,"x_max":0,"o":"m -15 1014 l 49 1014 l 581 -22 l 517 -22 "},"]":{"ha":411,"x_min":0,"x_max":0,"o":"m 214 936 l 47 936 l 47 992 l 278 992 l 278 -264 l 47 -264 l 47 -208 l 214 -208 "},"^":{"ha":833,"x_min":0,"x_max":0,"o":"m 382 978 l 454 978 l 779 349 l 724 349 l 417 931 l 110 349 l 54 349 "},"_":{"ha":694,"x_min":0,"x_max":0,"o":"m 0 -174 l 0 -104 l 694 -104 l 694 -174 "},"‘":{"ha":308,"x_min":0,"x_max":0,"o":"m 118 811 b 215 992 118 894 143 963 l 215 944 b 165 832 172 926 165 875 l 165 811 l 190 811 l 190 672 l 118 672 "},"a":{"ha":824,"x_min":0,"x_max":0,"o":"m 68 492 b 399 733 90 671 185 733 b 725 525 604 733 725 685 l 725 126 b 772 42 725 74 724 42 b 835 53 792 42 813 46 l 835 -3 b 757 -14 814 -10 789 -14 b 669 142 669 -14 669 47 l 667 142 b 328 -22 589 -4 421 -22 b 36 194 267 -22 36 -22 b 304 399 36 339 160 392 l 553 415 b 661 517 626 419 661 431 b 397 678 661 613 607 678 b 132 492 210 678 150 619 m 661 397 l 658 397 b 544 360 643 381 606 364 l 304 343 b 100 194 186 336 100 300 b 332 33 100 50 247 33 b 661 267 474 33 661 96 "},"b":{"ha":875,"x_min":0,"x_max":0,"o":"m 467 33 b 775 358 643 33 775 154 b 458 678 775 575 622 678 b 133 349 314 678 133 599 b 467 33 133 221 200 33 m 78 992 l 142 992 l 142 560 l 144 560 b 460 733 185 638 285 733 b 839 357 676 733 839 583 b 460 -22 839 157 710 -22 b 144 156 276 -22 178 71 l 142 156 l 142 0 l 78 0 "},"c":{"ha":849,"x_min":0,"x_max":0,"o":"m 739 488 b 438 678 732 576 608 678 b 100 349 211 678 100 518 b 438 33 100 233 181 33 b 749 249 582 33 715 101 l 813 249 b 438 -22 775 63 615 -22 b 36 349 204 -22 36 128 b 438 733 36 599 219 733 b 803 488 654 733 796 608 "},"d":{"ha":875,"x_min":0,"x_max":0,"o":"m 408 33 b 742 349 675 33 742 221 b 417 678 742 599 561 678 b 100 358 253 678 100 575 b 408 33 100 154 232 33 m 733 156 l 731 156 b 415 -22 697 71 599 -22 b 36 357 165 -22 36 157 b 415 733 36 583 199 733 b 731 560 590 733 690 638 l 733 560 l 733 992 l 797 992 l 797 0 l 733 0 "},"e":{"ha":849,"x_min":0,"x_max":0,"o":"m 753 397 b 426 678 726 592 589 678 b 100 397 242 678 128 568 m 100 342 b 439 33 104 164 224 33 b 742 236 661 33 715 174 l 806 236 b 432 -22 746 57 622 -22 b 36 361 189 -22 36 124 b 433 733 36 510 129 733 b 825 342 682 733 821 569 "},"f":{"ha":411,"x_min":0,"x_max":0,"o":"m 153 656 l -14 656 l -14 711 l 153 711 l 153 818 b 333 1000 153 929 185 1000 b 443 992 365 1000 403 996 l 443 936 b 342 944 411 942 374 944 b 217 838 310 944 217 944 l 217 711 l 422 711 l 422 656 l 217 656 l 217 0 l 153 0 "},"g":{"ha":900,"x_min":0,"x_max":0,"o":"m 758 711 l 822 711 l 822 35 b 433 -306 822 -126 763 -306 b 65 -67 211 -306 89 -240 l 129 -67 b 433 -250 144 -179 225 -250 b 758 32 710 -250 758 -100 l 758 179 l 756 179 b 422 8 693 61 572 8 b 36 375 146 8 36 185 b 424 733 36 560 151 733 b 756 568 550 733 689 697 l 758 567 m 424 678 b 100 378 256 678 100 583 b 431 64 100 174 218 64 b 758 379 615 64 758 163 b 424 678 758 568 633 678 "},"h":{"ha":849,"x_min":0,"x_max":0,"o":"m 78 992 l 142 992 l 142 569 l 144 569 b 444 733 189 654 283 733 b 771 439 771 733 771 524 l 771 0 l 707 0 l 707 436 b 443 678 707 581 653 678 b 142 415 232 678 142 549 l 142 0 l 78 0 "},"i":{"ha":231,"x_min":0,"x_max":0,"o":"m 83 992 l 147 992 l 147 844 l 83 844 m 83 711 l 147 711 l 147 0 l 83 0 "},"j":{"ha":231,"x_min":0,"x_max":0,"o":"m 83 992 l 147 992 l 147 844 l 83 844 m 147 -128 b -36 -306 147 -251 82 -306 b -122 -297 -79 -306 -101 -301 l -122 -242 b -36 -250 -101 -246 -68 -250 b 83 -72 82 -250 83 -169 l 83 711 l 147 711 "},"k":{"ha":772,"x_min":0,"x_max":0,"o":"m 78 992 l 142 992 l 142 333 l 649 711 l 743 711 l 383 443 l 776 0 l 689 0 l 333 403 l 142 261 l 142 0 l 78 0 "},"l":{"ha":231,"x_min":0,"x_max":0,"o":"m 83 992 l 147 992 l 147 0 l 83 0 "},"m":{"ha":1339,"x_min":0,"x_max":0,"o":"m 78 711 l 142 711 l 142 590 l 144 590 b 418 733 200 683 306 733 b 690 568 592 733 661 657 b 965 733 742 678 833 733 b 1261 482 1171 733 1261 643 l 1261 0 l 1197 0 l 1197 461 b 967 678 1197 578 1133 678 b 701 438 793 678 701 588 l 701 0 l 638 0 l 638 474 b 407 678 638 600 572 678 b 142 424 251 678 142 586 l 142 0 l 78 0 "},"n":{"ha":849,"x_min":0,"x_max":0,"o":"m 78 711 l 142 711 l 142 569 l 144 569 b 444 733 189 654 283 733 b 771 439 771 733 771 524 l 771 0 l 707 0 l 707 436 b 443 678 707 581 653 678 b 142 415 232 678 142 549 l 142 0 l 78 0 "},"o":{"ha":875,"x_min":0,"x_max":0,"o":"m 36 356 b 438 733 36 554 183 733 b 839 356 692 733 839 554 b 438 -22 839 154 692 -22 b 36 356 183 -22 36 154 m 100 356 b 438 33 100 194 211 33 b 775 356 664 33 775 194 b 438 678 775 517 664 678 b 100 356 211 678 100 517 "},"p":{"ha":875,"x_min":0,"x_max":0,"o":"m 467 678 b 133 363 200 678 133 490 b 458 33 133 113 314 33 b 775 353 622 33 775 136 b 467 678 775 557 643 678 m 78 711 l 142 711 l 142 556 l 144 556 b 460 733 178 640 276 733 b 839 354 710 733 839 554 b 460 -22 839 128 676 -22 b 144 151 285 -22 185 74 l 142 151 l 142 -281 l 78 -281 "},"q":{"ha":875,"x_min":0,"x_max":0,"o":"m 408 678 b 100 353 232 678 100 557 b 417 33 100 136 253 33 b 742 363 561 33 742 113 b 408 678 742 490 675 678 m 733 151 l 731 151 b 415 -22 690 74 590 -22 b 36 354 199 -22 36 128 b 415 733 36 554 165 733 b 731 556 599 733 697 640 l 733 556 l 733 711 l 797 711 l 797 -281 l 733 -281 "},"r":{"ha":489,"x_min":0,"x_max":0,"o":"m 78 711 l 142 711 l 142 543 l 144 543 b 439 733 193 669 300 733 b 492 725 460 733 471 731 l 492 661 b 418 669 476 667 458 669 b 142 385 233 669 142 529 l 142 0 l 78 0 "},"s":{"ha":746,"x_min":0,"x_max":0,"o":"m 625 503 b 356 678 615 621 540 678 b 124 536 182 678 124 610 b 267 415 124 458 182 426 l 493 385 b 717 190 626 367 717 318 b 376 -22 717 -3 497 -22 b 29 222 181 -22 40 44 l 93 222 b 393 33 100 150 117 33 b 653 190 581 33 653 89 b 510 319 653 274 593 308 l 260 353 b 60 532 171 364 60 404 b 358 733 60 613 117 733 b 689 503 621 733 682 614 "},"t":{"ha":438,"x_min":0,"x_max":0,"o":"m 147 951 l 211 951 l 211 711 l 422 711 l 422 656 l 211 656 l 211 143 b 340 42 211 56 261 42 b 429 50 369 42 400 46 l 429 -6 b 321 -14 396 -12 356 -14 b 147 178 172 -14 147 42 l 147 656 l -14 656 l -14 711 l 147 711 "},"u":{"ha":849,"x_min":0,"x_max":0,"o":"m 771 0 l 707 0 l 707 142 l 704 142 b 404 -22 660 57 565 -22 b 78 272 78 -22 78 186 l 78 711 l 142 711 l 142 275 b 406 33 142 131 196 33 b 707 296 617 33 707 163 l 707 711 l 771 711 "},"v":{"ha":772,"x_min":0,"x_max":0,"o":"m 3 711 l 75 711 l 386 64 l 697 711 l 769 711 l 418 0 l 354 0 "},"w":{"ha":1208,"x_min":0,"x_max":0,"o":"m 564 711 l 644 711 l 896 81 l 1144 711 l 1217 711 l 926 0 l 854 0 l 604 639 l 354 0 l 282 0 l -8 711 l 64 711 l 321 81 "},"x":{"ha":746,"x_min":0,"x_max":0,"o":"m 329 371 l 14 711 l 103 711 l 374 418 l 646 711 l 726 711 l 414 375 l 761 0 l 672 0 l 369 326 l 65 0 l -15 0 "},"y":{"ha":721,"x_min":0,"x_max":0,"o":"m -18 711 l 54 711 l 374 71 l 667 711 l 739 711 l 347 -125 b 164 -256 311 -201 275 -256 l 75 -256 l 75 -200 l 151 -200 b 306 -72 233 -200 251 -182 l 342 0 "},"z":{"ha":721,"x_min":0,"x_max":0,"o":"m 17 64 l 596 656 l 53 656 l 53 711 l 685 711 l 685 664 l 89 56 l 704 56 l 704 0 l 17 0 "},"{":{"ha":411,"x_min":0,"x_max":0,"o":"m 74 392 b 174 617 156 396 174 504 l 174 828 b 296 992 174 954 218 992 l 376 992 l 376 936 l 310 936 b 238 803 254 936 238 921 l 238 593 b 138 364 238 436 181 382 b 238 135 181 346 238 292 l 238 -75 b 310 -208 238 -193 254 -208 l 376 -208 l 376 -264 l 296 -264 b 174 -100 218 -264 174 -226 l 174 111 b 74 336 174 224 156 332 "},"|":{"ha":308,"x_min":0,"x_max":0,"o":"m 126 1014 l 182 1014 l 182 -22 l 126 -22 "},"}":{"ha":411,"x_min":0,"x_max":0,"o":"m 174 135 b 274 364 174 292 231 346 b 174 593 231 382 174 436 l 174 803 b 101 936 174 921 157 936 l 35 936 l 35 992 l 115 992 b 238 828 193 992 238 954 l 238 617 b 338 392 238 504 256 396 l 338 336 b 238 111 256 332 238 224 l 238 -100 b 115 -264 238 -226 193 -264 l 35 -264 l 35 -208 l 101 -208 b 174 -75 157 -208 174 -193 "},"~":{"ha":833,"x_min":0,"x_max":0,"o":"m 100 311 b 269 426 143 382 185 426 b 424 382 325 426 361 410 b 565 332 463 364 506 332 b 693 436 618 332 671 392 l 733 394 b 564 276 696 339 646 276 b 406 329 513 276 468 297 b 278 371 374 344 315 371 b 140 267 196 371 158 311 "},"¡":{"ha":358,"x_min":0,"x_max":0,"o":"m 143 711 l 215 711 l 215 572 l 143 572 m 143 -15 b 156 456 143 142 151 299 l 203 456 b 215 -15 207 299 215 142 l 215 -281 l 143 -281 "},"¢":{"ha":900,"x_min":0,"x_max":0,"o":"m 431 -21 b 63 349 215 -10 63 139 b 431 732 63 586 228 721 l 431 861 l 478 861 l 478 733 b 829 488 688 729 822 604 l 765 488 b 478 678 758 574 640 674 l 478 33 b 774 249 626 33 742 106 l 838 249 b 478 -22 800 67 651 -22 l 478 -174 l 431 -174 m 431 676 b 126 349 226 661 126 510 b 431 35 126 238 201 50 "},"£":{"ha":900,"x_min":0,"x_max":0,"o":"m 76 494 l 181 494 b 99 735 126 588 99 667 b 453 1000 99 806 138 1000 b 824 664 757 1000 824 836 l 760 664 b 451 944 760 881 632 944 b 163 735 318 944 163 894 b 253 494 163 661 213 572 l 568 494 l 568 447 l 272 447 b 299 333 289 404 299 374 b 133 47 299 218 218 117 l 136 44 b 319 94 225 94 282 94 b 465 64 368 94 417 79 b 601 33 514 49 561 33 b 815 146 697 33 774 96 l 844 93 b 601 -22 763 8 672 -22 b 447 8 546 -22 496 -7 b 301 39 399 24 351 39 b 92 -22 214 39 189 26 l 56 32 b 235 324 164 129 235 208 b 200 447 235 367 217 421 l 76 447 "},"⁄":{"ha":232,"x_min":0,"x_max":0,"o":"m 406 1000 l 461 1000 l -174 -22 l -229 -22 "},"¥":{"ha":900,"x_min":0,"x_max":0,"o":"m 418 236 l 125 236 l 125 283 l 418 283 l 418 417 l 401 439 l 125 439 l 125 486 l 365 486 l -14 978 l 75 978 l 443 486 l 457 486 l 833 978 l 914 978 l 535 486 l 775 486 l 775 439 l 499 439 l 482 417 l 482 283 l 775 283 l 775 236 l 482 236 l 482 0 l 418 0 "},"ƒ":{"ha":900,"x_min":0,"x_max":0,"o":"m 217 589 l 408 589 l 454 801 b 690 1000 483 942 543 1000 b 786 992 719 1000 751 997 l 775 936 b 715 943 717 942 736 943 b 681 944 711 943 699 943 b 513 783 567 944 535 883 l 472 589 l 668 589 l 660 542 l 463 542 l 347 -11 b 97 -264 318 -160 292 -264 b -1 -258 65 -264 31 -262 l 8 -203 b 97 -208 47 -208 81 -208 b 267 -72 224 -208 253 -142 l 399 542 l 206 542 "},"§":{"ha":900,"x_min":0,"x_max":0,"o":"m 289 639 b 125 482 256 639 125 590 b 278 319 125 392 190 360 l 606 168 b 775 322 611 168 775 188 b 640 476 775 413 699 451 m 672 763 b 439 958 672 815 672 958 b 215 815 374 958 215 958 b 317 696 215 772 238 733 l 686 525 b 839 340 775 482 839 425 b 654 138 839 183 694 144 b 744 -19 686 115 744 75 b 442 -225 744 -193 586 -225 b 139 36 324 -225 139 -194 l 203 36 b 444 -169 203 -108 285 -169 b 681 -29 489 -169 681 -169 b 531 132 681 63 611 92 l 247 264 b 61 474 99 335 61 393 b 243 669 61 613 199 658 b 151 819 203 696 151 732 b 424 1014 151 942 264 1014 b 736 763 615 1014 736 951 "},"¤":{"ha":900,"x_min":0,"x_max":0,"o":"m 169 489 b 450 208 169 333 294 208 b 731 489 606 208 731 333 b 450 769 731 644 606 769 b 169 489 294 769 169 644 m 749 153 l 674 229 b 450 144 608 172 528 144 b 226 229 368 144 292 172 l 150 153 l 111 189 l 190 265 b 106 489 135 331 107 410 b 190 713 106 568 133 647 l 111 790 l 150 826 l 226 750 b 450 833 292 804 368 832 b 674 749 528 833 608 806 l 749 826 l 786 788 l 710 713 b 794 489 767 647 794 568 b 710 267 794 410 767 329 l 786 192 "},"'":{"ha":308,"x_min":0,"x_max":0,"o":"m 126 992 l 182 992 l 182 672 l 126 672 "},"“":{"ha":489,"x_min":0,"x_max":0,"o":"m 314 811 b 411 992 314 894 339 963 l 411 944 b 361 832 368 926 361 875 l 361 811 l 386 811 l 386 672 l 314 672 m 103 811 b 200 992 103 894 128 963 l 200 944 b 150 832 157 926 150 875 l 150 811 l 175 811 l 175 672 l 103 672 "},"«":{"ha":617,"x_min":0,"x_max":0,"o":"m 290 231 l 290 156 l 101 343 l 101 407 l 290 594 l 290 519 l 149 375 m 496 231 l 496 156 l 307 343 l 307 407 l 496 594 l 496 519 l 354 375 "},"‹":{"ha":411,"x_min":0,"x_max":0,"o":"m 101 407 l 290 594 l 290 519 l 149 375 l 290 231 l 290 156 l 101 343 "},"›":{"ha":411,"x_min":0,"x_max":0,"o":"m 121 519 l 121 594 l 310 407 l 310 343 l 121 156 l 121 231 l 263 375 "},"ﬁ":{"ha":617,"x_min":0,"x_max":0,"o":"m 153 656 l -14 656 l -14 711 l 153 711 l 153 818 b 333 1000 153 929 185 1000 b 443 992 365 1000 403 996 l 443 936 b 342 944 411 942 374 944 b 217 838 310 944 217 944 l 217 711 l 422 711 l 422 656 l 217 656 l 217 0 l 153 0 m 489 992 l 553 992 l 553 844 l 489 844 m 489 711 l 553 711 l 553 0 l 489 0 "},"ﬂ":{"ha":617,"x_min":0,"x_max":0,"o":"m 489 992 l 553 992 l 553 0 l 489 0 m 153 656 l -14 656 l -14 711 l 153 711 l 153 818 b 333 1000 153 929 185 1000 b 443 992 365 1000 403 996 l 443 936 b 342 944 411 942 374 944 b 217 838 310 944 217 944 l 217 711 l 422 711 l 422 656 l 217 656 l 217 0 l 153 0 "},"–":{"ha":694,"x_min":0,"x_max":0,"o":"m 0 399 l 694 399 l 694 351 l 0 351 "},"†":{"ha":900,"x_min":0,"x_max":0,"o":"m 69 653 l 418 653 l 418 992 l 482 992 l 482 653 l 831 653 l 831 597 l 482 597 l 482 -217 l 418 -217 l 418 597 l 69 597 "},"‡":{"ha":900,"x_min":0,"x_max":0,"o":"m 69 119 l 418 119 l 418 656 l 69 656 l 69 711 l 418 711 l 418 992 l 482 992 l 482 711 l 831 711 l 831 656 l 482 656 l 482 119 l 831 119 l 831 64 l 482 64 l 482 -217 l 418 -217 l 418 64 l 69 64 "},"·":{"ha":308,"x_min":0,"x_max":0,"o":"m 76 444 b 154 522 76 488 111 522 b 232 444 197 522 232 488 b 154 367 232 401 197 367 b 76 444 111 367 76 401 "},"¶":{"ha":833,"x_min":0,"x_max":0,"o":"m 358 450 b 71 719 196 450 71 574 b 381 992 71 899 185 992 l 682 992 l 682 -203 l 626 -203 l 626 936 l 414 936 l 414 -203 l 358 -203 "},"•":{"ha":694,"x_min":0,"x_max":0,"o":"m 100 496 b 347 743 100 633 210 743 b 594 496 485 743 594 633 b 347 249 594 358 485 249 b 100 496 210 249 100 358 "},"‚":{"ha":308,"x_min":0,"x_max":0,"o":"m 118 139 l 190 139 l 190 0 b 93 -181 190 -83 165 -151 l 93 -133 b 143 -21 136 -115 143 -64 l 143 0 l 118 0 "},"„":{"ha":489,"x_min":0,"x_max":0,"o":"m 314 139 l 386 139 l 386 0 b 289 -181 386 -83 361 -151 l 289 -133 b 339 -21 332 -115 339 -64 l 339 0 l 314 0 m 103 139 l 175 139 l 175 0 b 78 -181 175 -83 150 -151 l 78 -133 b 128 -21 121 -115 128 -64 l 128 0 l 103 0 "},"”":{"ha":489,"x_min":0,"x_max":0,"o":"m 314 992 l 386 992 l 386 853 b 289 672 386 769 361 701 l 289 719 b 339 832 332 738 339 789 l 339 853 l 314 853 m 103 992 l 175 992 l 175 853 b 78 672 175 769 150 701 l 78 719 b 128 832 121 738 128 789 l 128 853 l 103 853 "},"»":{"ha":617,"x_min":0,"x_max":0,"o":"m 121 519 l 121 594 l 310 407 l 310 343 l 121 156 l 121 231 l 263 375 m 326 519 l 326 594 l 515 407 l 515 343 l 326 156 l 326 231 l 468 375 "},"…":{"ha":1389,"x_min":0,"x_max":0,"o":"m 1121 139 l 1193 139 l 1193 0 l 1121 0 m 658 139 l 731 139 l 731 0 l 658 0 m 196 139 l 268 139 l 268 0 l 196 0 "},"‰":{"ha":1621,"x_min":0,"x_max":0,"o":"m 861 1008 l 917 1008 l 182 -31 l 126 -31 m 249 515 b 435 736 382 515 435 614 b 249 953 435 858 382 953 b 63 736 117 953 63 858 b 249 515 63 614 115 515 m 249 468 b 7 736 85 468 7 576 b 249 1000 7 890 88 1000 b 490 736 414 1000 490 896 b 249 468 490 586 413 468 m 818 25 b 1004 246 951 25 1004 124 b 818 463 1004 368 951 463 b 632 246 686 463 632 368 b 818 25 632 124 685 25 m 818 -22 b 576 246 654 -22 576 86 b 818 510 576 400 657 510 b 1060 246 983 510 1060 406 b 818 -22 1060 96 982 -22 m 1372 25 b 1558 246 1506 25 1558 124 b 1372 463 1558 368 1506 463 b 1186 246 1240 463 1186 368 b 1372 25 1186 124 1239 25 m 1372 -22 b 1131 246 1208 -22 1131 86 b 1372 510 1131 400 1211 510 b 1614 246 1538 510 1614 406 b 1372 -22 1614 96 1536 -22 "},"¿":{"ha":875,"x_min":0,"x_max":0,"o":"m 490 572 l 418 572 l 418 711 l 490 711 m 486 456 l 486 424 b 318 178 486 292 446 264 b 160 -35 196 93 160 56 b 439 -247 160 -186 300 -247 b 742 25 629 -247 740 -165 l 806 25 b 447 -303 806 -203 658 -303 b 96 -39 243 -303 96 -219 b 276 219 96 79 147 135 b 422 410 390 293 422 318 l 422 456 "},"`":{"ha":231,"x_min":0,"x_max":0,"o":"m -75 1029 l 6 1029 l 206 832 l 143 832 "},"´":{"ha":231,"x_min":0,"x_max":0,"o":"m 306 1029 l 88 832 l 25 832 l 225 1029 "},"ˆ":{"ha":231,"x_min":0,"x_max":0,"o":"m 296 832 l 115 990 l -65 832 l -139 832 l 76 1029 l 154 1029 l 369 832 "},"˜":{"ha":231,"x_min":0,"x_max":0,"o":"m -126 869 b 4 992 -119 931 -69 992 b 125 954 49 992 88 975 b 233 917 163 936 196 917 b 310 992 290 917 303 964 l 357 992 b 319 907 353 960 340 931 b 238 869 299 885 272 869 b 111 907 189 869 149 889 b 0 944 74 928 39 944 b -79 869 -44 944 -75 908 "},"¯":{"ha":231,"x_min":0,"x_max":0,"o":"m -150 954 l 381 954 l 381 907 l -150 907 "},"˘":{"ha":231,"x_min":0,"x_max":0,"o":"m -57 1013 b 115 897 -36 919 28 897 b 288 1013 203 897 267 919 l 335 1013 b 115 850 319 892 226 850 b -104 1013 4 850 -89 892 "},"˙":{"ha":231,"x_min":0,"x_max":0,"o":"m 83 1004 l 147 1004 l 147 857 l 83 857 "},"¨":{"ha":231,"x_min":0,"x_max":0,"o":"m 231 1004 l 294 1004 l 294 857 l 231 857 m -64 1004 l 0 1004 l 0 857 l -64 857 "},"˚":{"ha":231,"x_min":0,"x_max":0,"o":"m 10 972 b 115 867 10 913 56 867 b 221 972 175 867 221 913 b 115 1078 221 1032 175 1078 b 10 972 56 1078 10 1032 m -37 972 b 115 1125 -37 1057 31 1125 b 268 972 200 1125 268 1057 b 115 819 268 888 200 819 b -37 972 31 819 -37 888 "},"¸":{"ha":231,"x_min":0,"x_max":0,"o":"m 111 0 l 158 0 l 88 -76 l 90 -79 b 151 -71 117 -74 136 -71 b 269 -158 207 -71 269 -99 b 115 -264 269 -236 183 -264 b -39 -239 69 -264 4 -251 l -25 -200 b 100 -225 8 -212 65 -225 b 214 -162 125 -225 214 -225 b 129 -110 214 -119 164 -110 b 47 -126 89 -110 68 -117 l 24 -106 "},"˝":{"ha":231,"x_min":0,"x_max":0,"o":"m 439 1029 l 221 832 l 158 832 l 358 1029 m 169 1029 l -49 832 l -111 832 l 89 1029 "},"˛":{"ha":231,"x_min":0,"x_max":0,"o":"m 310 -240 b 167 -264 278 -253 221 -264 b 35 -164 76 -264 35 -224 b 96 -56 35 -119 63 -83 b 179 0 131 -28 157 -12 l 224 0 b 90 -156 174 -35 90 -92 b 181 -225 90 -207 124 -225 b 293 -206 229 -225 260 -218 "},"ˇ":{"ha":231,"x_min":0,"x_max":0,"o":"m 369 1029 l 154 832 l 76 832 l -139 1029 l -65 1029 l 115 871 l 296 1029 "},"—":{"ha":1389,"x_min":0,"x_max":0,"o":"m 0 399 l 1389 399 l 1389 351 l 0 351 "},"Æ":{"ha":1467,"x_min":0,"x_max":0,"o":"m 297 413 l 714 413 l 714 936 l 635 936 m 599 992 l 1433 992 l 1433 936 l 778 936 l 778 542 l 1404 542 l 1404 486 l 778 486 l 778 56 l 1442 56 l 1442 0 l 714 0 l 714 357 l 261 357 l 31 0 l -46 0 "},"ª":{"ha":535,"x_min":0,"x_max":0,"o":"m 472 651 b 503 597 472 619 471 597 b 543 603 515 597 528 599 l 543 564 b 518 560 526 560 522 560 l 510 560 b 488 558 506 560 499 560 b 425 644 425 558 425 596 l 422 644 b 214 542 371 553 274 542 b 24 676 56 542 24 615 b 194 801 24 754 83 792 l 350 813 b 425 863 393 817 425 825 b 265 961 425 908 414 961 b 92 854 161 961 92 933 l 44 854 b 251 1000 44 961 144 1000 b 472 879 364 1000 472 985 m 425 797 b 347 774 415 790 396 778 l 190 763 b 71 674 106 757 71 724 b 217 581 71 629 99 581 b 425 724 300 581 425 619 "},"Ł":{"ha":797,"x_min":0,"x_max":0,"o":"m 83 329 l 0 263 l 0 326 l 83 393 l 83 992 l 147 992 l 147 444 l 506 733 l 506 669 l 147 381 l 147 56 l 797 56 l 797 0 l 83 0 "},"Ø":{"ha":1133,"x_min":0,"x_max":0,"o":"m 250 150 b 567 33 328 78 433 33 b 1029 496 865 33 1029 258 b 914 811 1029 613 992 724 m 883 842 b 567 958 806 913 701 958 b 104 496 268 958 104 733 b 219 182 104 379 143 265 m 175 138 b 40 496 75 249 40 389 b 567 1014 40 689 164 1014 b 928 885 729 1014 844 963 l 1057 1014 l 1088 983 l 957 854 b 1093 496 1056 747 1093 599 b 567 -22 1093 303 968 -22 b 206 106 404 -22 289 29 l 76 -22 l 46 8 "},"Œ":{"ha":1621,"x_min":0,"x_max":0,"o":"m 942 56 l 1596 56 l 1596 0 l 878 0 l 878 106 b 550 -22 790 11 674 -22 b 47 499 247 -22 47 171 b 550 1014 47 821 267 1014 b 878 897 672 1014 789 986 l 878 992 l 1588 992 l 1588 936 l 942 936 l 942 542 l 1558 542 l 1558 486 l 942 486 m 878 803 b 556 958 878 860 750 958 b 111 499 269 958 111 761 b 556 33 111 265 226 33 b 878 194 761 33 878 147 "},"º":{"ha":569,"x_min":0,"x_max":0,"o":"m 24 771 b 285 1000 24 921 143 1000 b 546 771 426 1000 546 921 b 285 542 546 621 426 542 b 24 771 143 542 24 621 m 71 771 b 285 581 71 676 143 581 b 499 771 424 581 499 676 b 285 961 499 865 424 961 b 71 771 143 961 71 865 "},"æ":{"ha":1465,"x_min":0,"x_max":0,"o":"m 661 397 l 658 397 b 544 360 643 381 606 364 l 304 343 b 100 194 186 336 100 300 b 332 33 100 50 247 33 b 661 267 474 33 661 96 m 1369 397 b 1043 678 1343 592 1206 678 b 717 397 858 678 744 568 m 717 342 b 1056 33 721 164 840 33 b 1358 236 1278 33 1332 174 l 1422 236 b 1049 -22 1363 57 1239 -22 b 694 196 908 -22 754 28 l 692 196 b 328 -22 654 67 526 -22 b 36 194 267 -22 36 -22 b 304 399 36 339 160 392 l 553 415 b 661 517 626 419 661 431 b 397 678 661 613 607 678 b 132 492 210 678 150 619 l 68 492 b 399 733 90 671 185 733 b 717 544 558 733 699 704 l 719 544 b 1050 733 765 661 888 733 b 1442 342 1299 733 1438 569 "},"ı":{"ha":231,"x_min":0,"x_max":0,"o":"m 83 711 l 147 711 l 147 0 l 83 0 "},"ł":{"ha":231,"x_min":0,"x_max":0,"o":"m 83 456 l 0 368 l 0 431 l 83 518 l 83 992 l 147 992 l 147 585 l 231 672 l 231 610 l 147 522 l 147 0 l 83 0 "},"ø":{"ha":875,"x_min":0,"x_max":0,"o":"m 139 94 b 36 356 72 163 36 256 b 438 733 36 554 183 733 b 710 642 550 733 642 699 l 810 738 l 835 711 l 736 617 b 839 356 803 546 839 456 b 438 -22 839 154 692 -22 b 165 69 322 -22 231 14 l 65 -26 l 40 0 m 208 111 b 438 33 265 63 339 33 b 775 356 664 33 775 194 b 693 575 775 438 747 515 m 667 600 b 438 678 613 649 538 678 b 100 356 211 678 100 517 b 182 136 100 272 128 196 "},"œ":{"ha":1492,"x_min":0,"x_max":0,"o":"m 724 356 b 413 678 724 550 611 678 b 100 356 218 678 100 550 b 413 33 100 164 214 33 b 724 356 607 33 724 160 m 1447 229 b 1086 -22 1414 69 1268 -22 b 750 197 935 -22 788 47 l 747 197 b 407 -22 690 47 575 -22 b 36 356 181 -22 36 128 b 413 733 36 578 190 733 b 751 513 574 733 697 661 l 754 513 b 1086 733 821 668 946 733 b 1456 342 1331 733 1449 572 l 779 342 b 1086 33 779 153 893 33 b 1383 229 1238 33 1346 94 m 1392 397 b 1086 678 1369 579 1269 678 b 779 397 907 678 779 540 "},"ß":{"ha":824,"x_min":0,"x_max":0,"o":"m 78 0 l 78 725 b 400 1011 78 929 204 1011 b 738 767 589 1011 738 949 b 540 556 738 683 694 578 l 540 553 b 788 285 707 542 788 435 b 456 -14 788 121 679 -14 b 346 0 404 -14 367 -10 l 346 56 b 460 42 363 50 404 42 b 724 297 596 42 724 101 b 414 521 724 461 604 521 l 363 521 l 363 576 l 404 576 b 674 767 568 576 674 635 b 407 956 674 833 638 956 b 142 726 211 956 142 865 l 142 0 "},"¹":{"ha":539,"x_min":0,"x_max":0,"o":"m 279 910 b 78 833 222 861 144 840 l 78 872 b 283 983 144 876 254 918 l 326 983 l 326 397 l 279 397 "},"¬":{"ha":833,"x_min":0,"x_max":0,"o":"m 713 458 l 65 458 l 65 514 l 768 514 l 768 150 l 713 150 "},"µ":{"ha":849,"x_min":0,"x_max":0,"o":"m 771 0 l 707 0 l 707 142 l 704 142 b 404 -22 660 57 565 -22 b 144 89 244 -22 178 38 l 142 89 l 142 -281 l 78 -281 l 78 711 l 142 711 l 142 275 b 406 33 142 131 196 33 b 707 296 617 33 707 163 l 707 711 l 771 711 "},"™":{"ha":1375,"x_min":0,"x_max":0,"o":"m 1156 944 l 1153 944 l 921 419 l 896 419 l 664 944 l 661 944 l 661 419 l 614 419 l 614 992 l 694 992 l 908 511 l 1122 992 l 1203 992 l 1203 419 l 1156 419 m 260 944 l 61 944 l 61 992 l 506 992 l 506 944 l 307 944 l 307 419 l 260 419 "},"Ð":{"ha":1054,"x_min":0,"x_max":0,"o":"m 147 542 l 517 542 l 517 486 l 147 486 l 147 56 l 549 56 b 928 496 767 56 928 190 b 533 936 928 810 768 936 l 147 936 m 83 486 l 0 486 l 0 542 l 83 542 l 83 992 l 547 992 b 992 496 782 992 992 879 b 536 0 992 206 844 0 l 83 0 "},"½":{"ha":1350,"x_min":0,"x_max":0,"o":"m 1263 0 l 783 0 b 989 222 799 122 856 151 b 1200 422 1121 292 1200 321 b 1031 553 1200 518 1113 553 b 842 385 897 553 842 485 l 794 385 b 1031 592 794 529 874 592 b 1247 422 1138 592 1247 547 b 1018 192 1247 308 1164 263 b 831 39 922 143 851 104 l 1263 39 m 244 910 b 43 833 188 861 110 840 l 43 872 b 249 983 110 876 219 918 l 292 983 l 292 397 l 244 397 m 917 1000 l 972 1000 l 338 -22 l 282 -22 "},"±":{"ha":833,"x_min":0,"x_max":0,"o":"m 65 56 l 768 56 l 768 0 l 65 0 m 65 442 l 389 442 l 389 703 l 444 703 l 444 442 l 768 442 l 768 386 l 444 386 l 444 125 l 389 125 l 389 386 l 65 386 "},"Þ":{"ha":926,"x_min":0,"x_max":0,"o":"m 147 283 l 589 283 b 838 506 711 283 838 332 b 574 728 838 728 658 728 l 147 728 m 83 992 l 147 992 l 147 783 l 600 783 b 901 508 739 783 901 735 b 590 228 901 342 807 228 l 147 228 l 147 0 l 83 0 "},"¼":{"ha":1350,"x_min":0,"x_max":0,"o":"m 917 1000 l 972 1000 l 338 -22 l 282 -22 m 244 910 b 43 833 188 861 110 840 l 43 872 b 249 983 110 876 219 918 l 292 983 l 292 397 l 244 397 m 1110 531 l 817 190 l 1110 190 m 1110 586 l 1157 586 l 1157 190 l 1281 190 l 1281 151 l 1157 151 l 1157 0 l 1110 0 l 1110 151 l 769 151 l 769 197 "},"÷":{"ha":833,"x_min":0,"x_max":0,"o":"m 343 74 b 417 147 343 114 376 147 b 490 74 457 147 490 114 b 417 0 490 33 457 0 b 343 74 376 0 343 33 m 343 629 b 417 703 343 669 376 703 b 490 629 457 703 490 669 b 417 556 490 589 457 556 b 343 629 376 556 343 589 m 65 379 l 768 379 l 768 324 l 65 324 "},"¦":{"ha":308,"x_min":0,"x_max":0,"o":"m 126 1014 l 182 1014 l 182 639 l 126 639 m 126 353 l 182 353 l 182 -22 l 126 -22 "},"°":{"ha":556,"x_min":0,"x_max":0,"o":"m 124 799 b 278 644 124 715 194 644 b 432 799 361 644 432 715 b 278 953 432 882 361 953 b 124 799 194 953 124 882 m 76 799 b 278 1000 76 910 167 1000 b 479 799 389 1000 479 910 b 278 597 479 688 389 597 b 76 799 167 597 76 688 "},"þ":{"ha":875,"x_min":0,"x_max":0,"o":"m 467 678 b 133 363 200 678 133 490 b 458 33 133 113 314 33 b 775 353 622 33 775 136 b 467 678 775 557 643 678 m 78 992 l 142 992 l 142 556 l 144 556 b 460 733 178 640 276 733 b 839 354 710 733 839 554 b 460 -22 839 128 676 -22 b 144 151 285 -22 185 74 l 142 151 l 142 -281 l 78 -281 "},"¾":{"ha":1350,"x_min":0,"x_max":0,"o":"m 288 733 b 501 846 361 733 501 735 b 332 961 501 939 406 961 b 140 803 228 961 140 919 l 93 803 b 340 1000 97 949 192 1000 b 549 846 429 1000 549 967 b 408 718 549 758 486 728 l 408 715 b 565 560 497 715 565 660 b 318 381 565 415 435 381 b 75 594 181 381 75 435 l 122 594 b 328 419 122 461 218 419 b 518 561 414 419 518 454 b 288 694 518 690 376 694 m 1014 1000 l 1069 1000 l 435 -22 l 379 -22 m 1110 533 l 817 190 l 1110 190 m 1110 589 l 1157 589 l 1157 190 l 1281 190 l 1281 151 l 1157 151 l 1157 0 l 1110 0 l 1110 151 l 769 151 l 769 197 "},"²":{"ha":585,"x_min":0,"x_max":0,"o":"m 532 408 l 53 408 b 258 631 68 531 125 560 b 469 831 390 700 469 729 b 300 961 469 926 382 961 b 111 793 167 961 111 893 l 64 793 b 300 1000 64 938 143 1000 b 517 831 407 1000 517 956 b 288 600 517 717 433 671 b 100 447 192 551 121 513 l 532 447 "},"®":{"ha":1111,"x_min":0,"x_max":0,"o":"m 38 496 b 556 1014 38 781 271 1014 b 1074 496 840 1014 1074 781 b 556 -22 1074 211 840 -22 b 38 496 271 -22 38 211 m 93 496 b 556 33 93 240 300 33 b 1018 496 811 33 1018 240 b 556 958 1018 751 811 958 b 93 496 300 958 93 751 m 411 517 l 542 517 b 736 633 656 517 736 528 b 592 756 736 728 675 756 l 411 756 m 356 803 l 592 803 b 792 633 713 803 792 767 b 635 469 792 526 731 485 l 819 189 l 756 189 l 571 469 l 411 469 l 411 189 l 356 189 "},"−":{"ha":833,"x_min":0,"x_max":0,"o":"m 65 379 l 768 379 l 768 324 l 65 324 "},"ð":{"ha":875,"x_min":0,"x_max":0,"o":"m 36 356 b 422 733 36 554 182 733 b 756 567 554 733 672 693 l 758 569 b 551 851 703 690 636 783 b 467 910 525 872 496 892 l 303 829 l 265 857 l 421 935 b 408 940 417 936 413 939 b 232 1003 356 965 297 986 l 269 1046 b 479 964 344 1028 414 1000 l 643 1046 l 675 1014 l 524 939 b 676 807 582 901 633 858 b 839 372 778 692 839 544 b 438 -22 839 142 692 -22 b 36 356 183 -22 36 154 m 100 356 b 438 33 100 194 211 33 b 775 356 664 33 775 194 b 438 678 775 517 664 678 b 100 356 211 678 100 517 "},"×":{"ha":833,"x_min":0,"x_max":0,"o":"m 381 351 l 110 622 l 146 660 l 417 388 l 686 660 l 724 622 l 453 351 l 724 82 l 686 44 l 417 315 l 146 44 l 110 82 "},"³":{"ha":585,"x_min":0,"x_max":0,"o":"m 260 733 b 474 846 333 733 474 735 b 304 961 474 939 378 961 b 113 803 200 961 113 919 l 65 803 b 313 1000 69 949 164 1000 b 521 846 401 1000 521 967 b 381 718 521 758 458 728 l 381 715 b 538 560 469 715 538 660 b 290 381 538 415 407 381 b 47 594 153 381 47 435 l 94 594 b 300 419 94 461 190 419 b 490 561 386 419 490 454 b 260 694 490 690 349 694 "},"©":{"ha":1111,"x_min":0,"x_max":0,"o":"m 38 496 b 556 1014 38 781 271 1014 b 1074 496 840 1014 1074 781 b 556 -22 1074 211 840 -22 b 38 496 271 -22 38 211 m 781 608 b 572 776 760 713 685 776 b 314 497 410 776 314 658 b 572 214 314 343 413 214 b 781 390 685 214 760 279 l 836 390 b 572 167 818 256 704 167 b 258 497 382 167 258 308 b 572 824 258 688 376 824 b 836 608 707 824 814 744 m 93 496 b 556 33 93 240 300 33 b 1018 496 811 33 1018 240 b 556 958 1018 751 811 958 b 93 496 300 958 93 751 "},"Á":{"ha":953,"x_min":0,"x_max":0,"o":"m 228 375 l 725 375 l 476 919 m 440 992 l 513 992 l 968 0 l 896 0 l 750 319 l 203 319 l 57 0 l -15 0 m 725 1264 l 507 1067 l 444 1067 l 644 1264 "},"Â":{"ha":953,"x_min":0,"x_max":0,"o":"m 228 375 l 725 375 l 476 919 m 440 992 l 513 992 l 968 0 l 896 0 l 750 319 l 203 319 l 57 0 l -15 0 m 658 1067 l 478 1225 l 297 1067 l 224 1067 l 439 1264 l 517 1264 l 732 1067 "},"Ä":{"ha":953,"x_min":0,"x_max":0,"o":"m 228 375 l 725 375 l 476 919 m 440 992 l 513 992 l 968 0 l 896 0 l 750 319 l 203 319 l 57 0 l -15 0 m 593 1239 l 657 1239 l 657 1092 l 593 1092 m 299 1239 l 363 1239 l 363 1092 l 299 1092 "},"À":{"ha":953,"x_min":0,"x_max":0,"o":"m 228 375 l 725 375 l 476 919 m 440 992 l 513 992 l 968 0 l 896 0 l 750 319 l 203 319 l 57 0 l -15 0 m 226 1264 l 307 1264 l 507 1067 l 444 1067 "},"Å":{"ha":953,"x_min":0,"x_max":0,"o":"m 228 375 l 725 375 l 476 919 m 440 992 l 513 992 l 968 0 l 896 0 l 750 319 l 203 319 l 57 0 l -15 0 m 371 1194 b 476 1089 371 1135 417 1089 b 582 1194 536 1089 582 1135 b 476 1300 582 1254 536 1300 b 371 1194 417 1300 371 1254 m 324 1194 b 476 1347 324 1279 392 1347 b 629 1194 561 1347 629 1279 b 476 1042 629 1110 561 1042 b 324 1194 392 1042 324 1110 "},"Ã":{"ha":953,"x_min":0,"x_max":0,"o":"m 228 375 l 725 375 l 476 919 m 440 992 l 513 992 l 968 0 l 896 0 l 750 319 l 203 319 l 57 0 l -15 0 m 236 1104 b 367 1226 243 1165 293 1226 b 488 1189 411 1226 450 1210 b 596 1151 525 1171 558 1151 b 672 1226 653 1151 665 1199 l 719 1226 b 682 1142 715 1194 703 1165 b 600 1104 661 1119 635 1104 b 474 1142 551 1104 511 1124 b 363 1179 436 1163 401 1179 b 283 1104 318 1179 288 1143 "},"Ç":{"ha":1106,"x_min":0,"x_max":0,"o":"m 1056 376 b 765 13 1039 233 940 85 b 575 -22 710 -10 646 -21 l 525 -76 l 528 -79 b 589 -71 554 -74 574 -71 b 707 -158 644 -71 707 -99 b 553 -264 707 -236 621 -264 b 399 -239 507 -264 442 -251 l 413 -200 b 538 -225 446 -212 503 -225 b 651 -162 563 -225 651 -225 b 567 -110 651 -119 601 -110 b 485 -126 526 -110 506 -117 l 461 -106 l 531 -21 b 358 13 469 -18 413 -7 b 40 496 168 81 40 250 b 568 1014 40 736 204 1014 b 1039 681 807 1014 988 903 l 975 681 b 568 958 926 871 756 958 b 104 496 285 958 104 746 b 568 33 104 247 264 33 b 992 376 788 33 954 161 "},"É":{"ha":900,"x_min":0,"x_max":0,"o":"m 83 992 l 867 992 l 867 936 l 147 936 l 147 542 l 838 542 l 838 486 l 147 486 l 147 56 l 875 56 l 875 0 l 83 0 m 710 1264 l 492 1067 l 429 1067 l 629 1264 "},"Ê":{"ha":900,"x_min":0,"x_max":0,"o":"m 83 992 l 867 992 l 867 936 l 147 936 l 147 542 l 838 542 l 838 486 l 147 486 l 147 56 l 875 56 l 875 0 l 83 0 m 665 1067 l 485 1225 l 304 1067 l 231 1067 l 446 1264 l 524 1264 l 739 1067 "},"Ë":{"ha":900,"x_min":0,"x_max":0,"o":"m 83 992 l 867 992 l 867 936 l 147 936 l 147 542 l 838 542 l 838 486 l 147 486 l 147 56 l 875 56 l 875 0 l 83 0 m 586 1239 l 650 1239 l 650 1092 l 586 1092 m 292 1239 l 356 1239 l 356 1092 l 292 1092 "},"È":{"ha":900,"x_min":0,"x_max":0,"o":"m 83 992 l 867 992 l 867 936 l 147 936 l 147 542 l 838 542 l 838 486 l 147 486 l 147 56 l 875 56 l 875 0 l 83 0 m 271 1264 l 351 1264 l 551 1067 l 489 1067 "},"Í":{"ha":231,"x_min":0,"x_max":0,"o":"m 83 992 l 147 992 l 147 0 l 83 0 m 365 1264 l 147 1067 l 85 1067 l 285 1264 "},"Î":{"ha":231,"x_min":0,"x_max":0,"o":"m 83 992 l 147 992 l 147 0 l 83 0 m 296 1067 l 115 1225 l -65 1067 l -139 1067 l 76 1264 l 154 1264 l 369 1067 "},"Ï":{"ha":231,"x_min":0,"x_max":0,"o":"m 83 992 l 147 992 l 147 0 l 83 0 m 231 1239 l 294 1239 l 294 1092 l 231 1092 m -64 1239 l 0 1239 l 0 1092 l -64 1092 "},"Ì":{"ha":231,"x_min":0,"x_max":0,"o":"m 83 992 l 147 992 l 147 0 l 83 0 m -131 1264 l -50 1264 l 150 1067 l 88 1067 "},"Ñ":{"ha":1054,"x_min":0,"x_max":0,"o":"m 83 992 l 164 992 l 904 89 l 907 89 l 907 992 l 971 992 l 971 0 l 890 0 l 150 903 l 147 903 l 147 0 l 83 0 m 293 1104 b 424 1226 300 1165 350 1226 b 544 1189 468 1226 507 1210 b 653 1151 582 1171 615 1151 b 729 1226 710 1151 722 1199 l 776 1226 b 739 1142 772 1194 760 1165 b 657 1104 718 1119 692 1104 b 531 1142 608 1104 568 1124 b 419 1179 493 1163 458 1179 b 340 1104 375 1179 344 1143 "},"Ó":{"ha":1133,"x_min":0,"x_max":0,"o":"m 40 496 b 567 1014 40 689 164 1014 b 1093 496 968 1014 1093 689 b 567 -22 1093 303 968 -22 b 40 496 165 -22 40 303 m 104 496 b 567 33 104 258 268 33 b 1029 496 865 33 1029 258 b 567 958 1029 733 865 958 b 104 496 268 958 104 733 m 786 1264 l 568 1067 l 506 1067 l 706 1264 "},"Ô":{"ha":1133,"x_min":0,"x_max":0,"o":"m 40 496 b 567 1014 40 689 164 1014 b 1093 496 968 1014 1093 689 b 567 -22 1093 303 968 -22 b 40 496 165 -22 40 303 m 104 496 b 567 33 104 258 268 33 b 1029 496 865 33 1029 258 b 567 958 1029 733 865 958 b 104 496 268 958 104 733 m 751 1067 l 571 1225 l 390 1067 l 317 1067 l 532 1264 l 610 1264 l 825 1067 "},"Ö":{"ha":1133,"x_min":0,"x_max":0,"o":"m 40 496 b 567 1014 40 689 164 1014 b 1093 496 968 1014 1093 689 b 567 -22 1093 303 968 -22 b 40 496 165 -22 40 303 m 104 496 b 567 33 104 258 268 33 b 1029 496 865 33 1029 258 b 567 958 1029 733 865 958 b 104 496 268 958 104 733 m 682 1239 l 746 1239 l 746 1092 l 682 1092 m 388 1239 l 451 1239 l 451 1092 l 388 1092 "},"Ò":{"ha":1133,"x_min":0,"x_max":0,"o":"m 40 496 b 567 1014 40 689 164 1014 b 1093 496 968 1014 1093 689 b 567 -22 1093 303 968 -22 b 40 496 165 -22 40 303 m 104 496 b 567 33 104 258 268 33 b 1029 496 865 33 1029 258 b 567 958 1029 733 865 958 b 104 496 268 958 104 733 m 363 1264 l 443 1264 l 643 1067 l 581 1067 "},"Õ":{"ha":1133,"x_min":0,"x_max":0,"o":"m 40 496 b 567 1014 40 689 164 1014 b 1093 496 968 1014 1093 689 b 567 -22 1093 303 968 -22 b 40 496 165 -22 40 303 m 104 496 b 567 33 104 258 268 33 b 1029 496 865 33 1029 258 b 567 958 1029 733 865 958 b 104 496 268 958 104 733 m 328 1104 b 458 1226 335 1165 385 1226 b 579 1189 503 1226 542 1210 b 688 1151 617 1171 650 1151 b 764 1226 744 1151 757 1199 l 811 1226 b 774 1142 807 1194 794 1165 b 692 1104 753 1119 726 1104 b 565 1142 643 1104 603 1124 b 454 1179 528 1163 493 1179 b 375 1104 410 1179 379 1143 "},"Š":{"ha":926,"x_min":0,"x_max":0,"o":"m 103 328 b 483 33 104 143 217 33 b 815 254 728 33 815 138 b 554 458 815 367 761 414 l 369 497 b 69 757 151 542 69 608 b 444 1014 69 906 200 1014 b 860 711 694 1014 853 922 l 796 711 b 463 958 789 825 722 958 b 142 756 221 958 142 869 b 376 560 142 650 188 597 l 581 519 b 888 258 779 479 888 417 b 489 -22 888 124 799 -22 b 39 328 163 -22 39 117 m 715 1264 l 500 1067 l 422 1067 l 207 1264 l 281 1264 l 461 1106 l 642 1264 "},"Ú":{"ha":1028,"x_min":0,"x_max":0,"o":"m 75 992 l 139 992 l 139 369 b 514 33 139 158 240 33 b 889 369 788 33 889 158 l 889 992 l 953 992 l 953 367 b 514 -22 953 110 807 -22 b 75 367 221 -22 75 110 m 726 1264 l 508 1067 l 446 1067 l 646 1264 "},"Û":{"ha":1028,"x_min":0,"x_max":0,"o":"m 75 992 l 139 992 l 139 369 b 514 33 139 158 240 33 b 889 369 788 33 889 158 l 889 992 l 953 992 l 953 367 b 514 -22 953 110 807 -22 b 75 367 221 -22 75 110 m 692 1067 l 511 1225 l 331 1067 l 257 1067 l 472 1264 l 550 1264 l 765 1067 "},"Ü":{"ha":1028,"x_min":0,"x_max":0,"o":"m 75 992 l 139 992 l 139 369 b 514 33 139 158 240 33 b 889 369 788 33 889 158 l 889 992 l 953 992 l 953 367 b 514 -22 953 110 807 -22 b 75 367 221 -22 75 110 m 628 1239 l 692 1239 l 692 1092 l 628 1092 m 333 1239 l 397 1239 l 397 1092 l 333 1092 "},"Ù":{"ha":1028,"x_min":0,"x_max":0,"o":"m 75 992 l 139 992 l 139 369 b 514 33 139 158 240 33 b 889 369 788 33 889 158 l 889 992 l 953 992 l 953 367 b 514 -22 953 110 807 -22 b 75 367 221 -22 75 110 m 299 1264 l 379 1264 l 579 1067 l 517 1067 "},"Ý":{"ha":928,"x_min":0,"x_max":0,"o":"m -28 992 l 61 992 l 464 476 l 875 992 l 956 992 l 496 417 l 496 0 l 432 0 l 432 417 m 729 1264 l 511 1067 l 449 1067 l 649 1264 "},"Ÿ":{"ha":928,"x_min":0,"x_max":0,"o":"m -28 992 l 61 992 l 464 476 l 875 992 l 956 992 l 496 417 l 496 0 l 432 0 l 432 417 m 581 1239 l 644 1239 l 644 1092 l 581 1092 m 286 1239 l 350 1239 l 350 1092 l 286 1092 "},"Ž":{"ha":849,"x_min":0,"x_max":0,"o":"m -7 68 l 772 936 l 39 936 l 39 992 l 844 992 l 844 928 l 65 56 l 856 56 l 856 0 l -7 0 m 686 1264 l 471 1067 l 393 1067 l 178 1264 l 251 1264 l 432 1106 l 613 1264 "},"á":{"ha":824,"x_min":0,"x_max":0,"o":"m 68 492 b 399 733 90 671 185 733 b 725 525 604 733 725 685 l 725 126 b 772 42 725 74 724 42 b 835 53 792 42 813 46 l 835 -3 b 757 -14 814 -10 789 -14 b 669 142 669 -14 669 47 l 667 142 b 328 -22 589 -4 421 -22 b 36 194 267 -22 36 -22 b 304 399 36 339 160 392 l 553 415 b 661 517 626 419 661 431 b 397 678 661 613 607 678 b 132 492 210 678 150 619 m 661 397 l 658 397 b 544 360 643 381 606 364 l 304 343 b 100 194 186 336 100 300 b 332 33 100 50 247 33 b 661 267 474 33 661 96 m 631 1029 l 413 832 l 350 832 l 550 1029 "},"â":{"ha":824,"x_min":0,"x_max":0,"o":"m 68 492 b 399 733 90 671 185 733 b 725 525 604 733 725 685 l 725 126 b 772 42 725 74 724 42 b 835 53 792 42 813 46 l 835 -3 b 757 -14 814 -10 789 -14 b 669 142 669 -14 669 47 l 667 142 b 328 -22 589 -4 421 -22 b 36 194 267 -22 36 -22 b 304 399 36 339 160 392 l 553 415 b 661 517 626 419 661 431 b 397 678 661 613 607 678 b 132 492 210 678 150 619 m 661 397 l 658 397 b 544 360 643 381 606 364 l 304 343 b 100 194 186 336 100 300 b 332 33 100 50 247 33 b 661 267 474 33 661 96 m 589 832 l 408 990 l 228 832 l 154 832 l 369 1029 l 447 1029 l 663 832 "},"ä":{"ha":824,"x_min":0,"x_max":0,"o":"m 68 492 b 399 733 90 671 185 733 b 725 525 604 733 725 685 l 725 126 b 772 42 725 74 724 42 b 835 53 792 42 813 46 l 835 -3 b 757 -14 814 -10 789 -14 b 669 142 669 -14 669 47 l 667 142 b 328 -22 589 -4 421 -22 b 36 194 267 -22 36 -22 b 304 399 36 339 160 392 l 553 415 b 661 517 626 419 661 431 b 397 678 661 613 607 678 b 132 492 210 678 150 619 m 661 397 l 658 397 b 544 360 643 381 606 364 l 304 343 b 100 194 186 336 100 300 b 332 33 100 50 247 33 b 661 267 474 33 661 96 m 522 1004 l 586 1004 l 586 857 l 522 857 m 228 1004 l 292 1004 l 292 857 l 228 857 "},"à":{"ha":824,"x_min":0,"x_max":0,"o":"m 68 492 b 399 733 90 671 185 733 b 725 525 604 733 725 685 l 725 126 b 772 42 725 74 724 42 b 835 53 792 42 813 46 l 835 -3 b 757 -14 814 -10 789 -14 b 669 142 669 -14 669 47 l 667 142 b 328 -22 589 -4 421 -22 b 36 194 267 -22 36 -22 b 304 399 36 339 160 392 l 553 415 b 661 517 626 419 661 431 b 397 678 661 613 607 678 b 132 492 210 678 150 619 m 661 397 l 658 397 b 544 360 643 381 606 364 l 304 343 b 100 194 186 336 100 300 b 332 33 100 50 247 33 b 661 267 474 33 661 96 m 221 1029 l 301 1029 l 501 832 l 439 832 "},"å":{"ha":824,"x_min":0,"x_max":0,"o":"m 68 492 b 399 733 90 671 185 733 b 725 525 604 733 725 685 l 725 126 b 772 42 725 74 724 42 b 835 53 792 42 813 46 l 835 -3 b 757 -14 814 -10 789 -14 b 669 142 669 -14 669 47 l 667 142 b 328 -22 589 -4 421 -22 b 36 194 267 -22 36 -22 b 304 399 36 339 160 392 l 553 415 b 661 517 626 419 661 431 b 397 678 661 613 607 678 b 132 492 210 678 150 619 m 661 397 l 658 397 b 544 360 643 381 606 364 l 304 343 b 100 194 186 336 100 300 b 332 33 100 50 247 33 b 661 267 474 33 661 96 m 297 972 b 403 867 297 913 343 867 b 508 972 463 867 508 913 b 403 1078 508 1032 463 1078 b 297 972 343 1078 297 1032 m 250 972 b 403 1125 250 1057 318 1125 b 556 972 488 1125 556 1057 b 403 819 556 888 488 819 b 250 972 318 819 250 888 "},"ã":{"ha":824,"x_min":0,"x_max":0,"o":"m 68 492 b 399 733 90 671 185 733 b 725 525 604 733 725 685 l 725 126 b 772 42 725 74 724 42 b 835 53 792 42 813 46 l 835 -3 b 757 -14 814 -10 789 -14 b 669 142 669 -14 669 47 l 667 142 b 328 -22 589 -4 421 -22 b 36 194 267 -22 36 -22 b 304 399 36 339 160 392 l 553 415 b 661 517 626 419 661 431 b 397 678 661 613 607 678 b 132 492 210 678 150 619 m 661 397 l 658 397 b 544 360 643 381 606 364 l 304 343 b 100 194 186 336 100 300 b 332 33 100 50 247 33 b 661 267 474 33 661 96 m 168 869 b 299 992 175 931 225 992 b 419 954 343 992 382 975 b 528 917 457 936 490 917 b 604 992 585 917 597 964 l 651 992 b 614 907 647 960 635 931 b 532 869 593 885 567 869 b 406 907 483 869 443 889 b 294 944 368 928 333 944 b 215 869 250 944 219 908 "},"ç":{"ha":849,"x_min":0,"x_max":0,"o":"m 739 488 b 438 678 732 576 608 678 b 100 349 211 678 100 518 b 438 33 100 233 181 33 b 749 249 582 33 715 101 l 813 249 b 565 -6 785 110 688 25 b 446 -22 528 -15 488 -21 l 396 -76 l 399 -79 b 460 -71 425 -74 444 -71 b 578 -158 515 -71 578 -99 b 424 -264 578 -236 492 -264 b 269 -239 378 -264 313 -251 l 283 -200 b 408 -225 317 -212 374 -225 b 522 -162 433 -225 522 -225 b 438 -110 522 -119 472 -110 b 356 -126 397 -110 376 -117 l 332 -106 l 401 -21 b 276 4 357 -18 315 -10 b 36 349 131 60 36 181 b 438 733 36 599 219 733 b 803 488 654 733 796 608 "},"é":{"ha":849,"x_min":0,"x_max":0,"o":"m 753 397 b 426 678 726 592 589 678 b 100 397 242 678 128 568 m 100 342 b 439 33 104 164 224 33 b 742 236 661 33 715 174 l 806 236 b 432 -22 746 57 622 -22 b 36 361 189 -22 36 124 b 433 733 36 510 129 733 b 825 342 682 733 821 569 m 644 1029 l 426 832 l 364 832 l 564 1029 "},"ê":{"ha":849,"x_min":0,"x_max":0,"o":"m 753 397 b 426 678 726 592 589 678 b 100 397 242 678 128 568 m 100 342 b 439 33 104 164 224 33 b 742 236 661 33 715 174 l 806 236 b 432 -22 746 57 622 -22 b 36 361 189 -22 36 124 b 433 733 36 510 129 733 b 825 342 682 733 821 569 m 615 832 l 435 990 l 254 832 l 181 832 l 396 1029 l 474 1029 l 689 832 "},"ë":{"ha":849,"x_min":0,"x_max":0,"o":"m 753 397 b 426 678 726 592 589 678 b 100 397 242 678 128 568 m 100 342 b 439 33 104 164 224 33 b 742 236 661 33 715 174 l 806 236 b 432 -22 746 57 622 -22 b 36 361 189 -22 36 124 b 433 733 36 510 129 733 b 825 342 682 733 821 569 m 551 1004 l 615 1004 l 615 857 l 551 857 m 257 1004 l 321 1004 l 321 857 l 257 857 "},"è":{"ha":849,"x_min":0,"x_max":0,"o":"m 753 397 b 426 678 726 592 589 678 b 100 397 242 678 128 568 m 100 342 b 439 33 104 164 224 33 b 742 236 661 33 715 174 l 806 236 b 432 -22 746 57 622 -22 b 36 361 189 -22 36 124 b 433 733 36 510 129 733 b 825 342 682 733 821 569 m 236 1029 l 317 1029 l 517 832 l 454 832 "},"í":{"ha":231,"x_min":0,"x_max":0,"o":"m 83 711 l 147 711 l 147 0 l 83 0 m 367 1029 l 149 832 l 86 832 l 286 1029 "},"î":{"ha":231,"x_min":0,"x_max":0,"o":"m 83 711 l 147 711 l 147 0 l 83 0 m 296 832 l 115 990 l -65 832 l -139 832 l 76 1029 l 154 1029 l 369 832 "},"ï":{"ha":231,"x_min":0,"x_max":0,"o":"m 83 711 l 147 711 l 147 0 l 83 0 m 231 1004 l 294 1004 l 294 857 l 231 857 m -64 1004 l 0 1004 l 0 857 l -64 857 "},"ì":{"ha":231,"x_min":0,"x_max":0,"o":"m 83 711 l 147 711 l 147 0 l 83 0 m -131 1029 l -50 1029 l 150 832 l 88 832 "},"ñ":{"ha":849,"x_min":0,"x_max":0,"o":"m 78 711 l 142 711 l 142 569 l 144 569 b 444 733 189 654 283 733 b 771 439 771 733 771 524 l 771 0 l 707 0 l 707 436 b 443 678 707 581 653 678 b 142 415 232 678 142 549 l 142 0 l 78 0 m 183 869 b 314 992 190 931 240 992 b 435 954 358 992 397 975 b 543 917 472 936 506 917 b 619 992 600 917 613 964 l 667 992 b 629 907 663 960 650 931 b 547 869 608 885 582 869 b 421 907 499 869 458 889 b 310 944 383 928 349 944 b 231 869 265 944 235 908 "},"ó":{"ha":875,"x_min":0,"x_max":0,"o":"m 36 356 b 438 733 36 554 183 733 b 839 356 692 733 839 554 b 438 -22 839 154 692 -22 b 36 356 183 -22 36 154 m 100 356 b 438 33 100 194 211 33 b 775 356 664 33 775 194 b 438 678 775 517 664 678 b 100 356 211 678 100 517 m 644 1029 l 426 832 l 364 832 l 564 1029 "},"ô":{"ha":875,"x_min":0,"x_max":0,"o":"m 36 356 b 438 733 36 554 183 733 b 839 356 692 733 839 554 b 438 -22 839 154 692 -22 b 36 356 183 -22 36 154 m 100 356 b 438 33 100 194 211 33 b 775 356 664 33 775 194 b 438 678 775 517 664 678 b 100 356 211 678 100 517 m 621 832 l 440 990 l 260 832 l 186 832 l 401 1029 l 479 1029 l 694 832 "},"ö":{"ha":875,"x_min":0,"x_max":0,"o":"m 36 356 b 438 733 36 554 183 733 b 839 356 692 733 839 554 b 438 -22 839 154 692 -22 b 36 356 183 -22 36 154 m 100 356 b 438 33 100 194 211 33 b 775 356 664 33 775 194 b 438 678 775 517 664 678 b 100 356 211 678 100 517 m 557 1004 l 621 1004 l 621 857 l 557 857 m 263 1004 l 326 1004 l 326 857 l 263 857 "},"ò":{"ha":875,"x_min":0,"x_max":0,"o":"m 36 356 b 438 733 36 554 183 733 b 839 356 692 733 839 554 b 438 -22 839 154 692 -22 b 36 356 183 -22 36 154 m 100 356 b 438 33 100 194 211 33 b 775 356 664 33 775 194 b 438 678 775 517 664 678 b 100 356 211 678 100 517 m 231 1029 l 311 1029 l 511 832 l 449 832 "},"õ":{"ha":875,"x_min":0,"x_max":0,"o":"m 36 356 b 438 733 36 554 183 733 b 839 356 692 733 839 554 b 438 -22 839 154 692 -22 b 36 356 183 -22 36 154 m 100 356 b 438 33 100 194 211 33 b 775 356 664 33 775 194 b 438 678 775 517 664 678 b 100 356 211 678 100 517 m 200 869 b 331 992 207 931 257 992 b 451 954 375 992 414 975 b 560 917 489 936 522 917 b 636 992 617 917 629 964 l 683 992 b 646 907 679 960 667 931 b 564 869 625 885 599 869 b 438 907 515 869 475 889 b 326 944 400 928 365 944 b 247 869 282 944 251 908 "},"š":{"ha":746,"x_min":0,"x_max":0,"o":"m 625 503 b 356 678 615 621 540 678 b 124 536 182 678 124 610 b 267 415 124 458 182 426 l 493 385 b 717 190 626 367 717 318 b 376 -22 717 -3 497 -22 b 29 222 181 -22 40 44 l 93 222 b 393 33 100 150 117 33 b 653 190 581 33 653 89 b 510 319 653 274 593 308 l 260 353 b 60 532 171 364 60 404 b 358 733 60 613 117 733 b 689 503 621 733 682 614 m 629 1029 l 414 832 l 336 832 l 121 1029 l 194 1029 l 375 871 l 556 1029 "},"ú":{"ha":849,"x_min":0,"x_max":0,"o":"m 771 0 l 707 0 l 707 142 l 704 142 b 404 -22 660 57 565 -22 b 78 272 78 -22 78 186 l 78 711 l 142 711 l 142 275 b 406 33 142 131 196 33 b 707 296 617 33 707 163 l 707 711 l 771 711 m 643 1029 l 425 832 l 363 832 l 563 1029 "},"û":{"ha":849,"x_min":0,"x_max":0,"o":"m 771 0 l 707 0 l 707 142 l 704 142 b 404 -22 660 57 565 -22 b 78 272 78 -22 78 186 l 78 711 l 142 711 l 142 275 b 406 33 142 131 196 33 b 707 296 617 33 707 163 l 707 711 l 771 711 m 604 832 l 424 990 l 243 832 l 169 832 l 385 1029 l 463 1029 l 678 832 "},"ü":{"ha":849,"x_min":0,"x_max":0,"o":"m 771 0 l 707 0 l 707 142 l 704 142 b 404 -22 660 57 565 -22 b 78 272 78 -22 78 186 l 78 711 l 142 711 l 142 275 b 406 33 142 131 196 33 b 707 296 617 33 707 163 l 707 711 l 771 711 m 539 1004 l 603 1004 l 603 857 l 539 857 m 244 1004 l 308 1004 l 308 857 l 244 857 "},"ù":{"ha":849,"x_min":0,"x_max":0,"o":"m 771 0 l 707 0 l 707 142 l 704 142 b 404 -22 660 57 565 -22 b 78 272 78 -22 78 186 l 78 711 l 142 711 l 142 275 b 406 33 142 131 196 33 b 707 296 617 33 707 163 l 707 711 l 771 711 m 203 1029 l 283 1029 l 483 832 l 421 832 "},"ý":{"ha":721,"x_min":0,"x_max":0,"o":"m -18 711 l 54 711 l 374 71 l 667 711 l 739 711 l 347 -125 b 164 -256 311 -201 275 -256 l 75 -256 l 75 -200 l 151 -200 b 306 -72 233 -200 251 -182 l 342 0 m 590 1029 l 372 832 l 310 832 l 510 1029 "},"ÿ":{"ha":721,"x_min":0,"x_max":0,"o":"m -18 711 l 54 711 l 374 71 l 667 711 l 739 711 l 347 -125 b 164 -256 311 -201 275 -256 l 75 -256 l 75 -200 l 151 -200 b 306 -72 233 -200 251 -182 l 342 0 m 489 1004 l 553 1004 l 553 857 l 489 857 m 194 1004 l 258 1004 l 258 857 l 194 857 "},"ž":{"ha":721,"x_min":0,"x_max":0,"o":"m 17 64 l 596 656 l 53 656 l 53 711 l 685 711 l 685 664 l 89 56 l 704 56 l 704 0 l 17 0 m 624 1029 l 408 832 l 331 832 l 115 1029 l 189 1029 l 369 871 l 550 1029 "},"€":{"ha":900,"x_min":0,"x_max":0,"o":"m 856 810 b 740 907 835 842 800 879 b 553 944 685 933 615 944 b 269 818 469 944 351 926 b 189 614 231 768 199 692 l 757 614 l 735 567 l 182 567 b 182 411 178 515 178 463 l 669 411 l 647 364 l 188 364 b 275 151 199 286 231 206 b 553 33 353 54 457 33 b 743 76 625 33 689 47 b 872 189 792 103 838 140 l 872 106 b 767 24 849 79 815 50 b 549 -22 700 -10 628 -22 b 228 111 458 -22 326 -6 b 124 364 171 179 135 275 l 0 364 l 22 411 l 118 411 b 118 567 114 463 114 515 l 0 567 l 22 614 l 125 614 b 235 874 135 697 169 801 b 558 1000 286 932 388 1000 b 772 957 635 1000 713 985 b 886 868 829 931 864 896 "},"≠":{"ha":824,"x_min":0,"x_max":0,"o":"m 356 181 l 250 -15 l 204 10 l 296 181 l 69 181 l 69 233 l 325 233 l 432 435 l 69 435 l 69 488 l 461 488 l 568 688 l 613 663 l 519 488 l 753 488 l 753 435 l 492 435 l 383 233 l 753 233 l 753 181 "},"∞":{"ha":1003,"x_min":0,"x_max":0,"o":"m 465 339 b 235 474 401 388 322 474 b 115 340 161 474 115 410 b 240 208 115 263 161 208 b 465 339 325 208 407 283 m 889 340 b 765 475 889 414 843 475 b 539 339 682 475 597 390 b 765 208 601 283 676 208 b 889 340 843 208 889 267 m 942 343 b 763 156 942 236 874 156 b 503 304 658 156 574 238 b 240 156 419 240 356 156 b 63 340 132 156 63 235 b 238 526 63 444 132 526 b 503 374 342 526 431 439 b 761 528 576 436 657 528 b 942 343 868 528 942 449 "},"≤":{"ha":824,"x_min":0,"x_max":0,"o":"m 69 -25 l 69 28 l 753 28 l 753 -25 m 69 361 l 69 419 l 753 694 l 753 636 l 142 390 l 753 146 l 753 88 "},"≥":{"ha":824,"x_min":0,"x_max":0,"o":"m 69 -25 l 69 28 l 753 28 l 753 -25 m 69 88 l 69 146 l 682 390 l 69 636 l 69 694 l 753 419 l 753 361 "},"∂":{"ha":651,"x_min":0,"x_max":0,"o":"m 533 390 b 300 533 478 464 397 533 b 94 290 165 533 94 413 b 299 32 94 172 165 32 b 533 390 469 32 526 256 m 596 510 b 297 -17 596 317 556 -17 b 39 292 132 -17 39 142 b 297 585 39 447 129 585 b 540 453 397 585 481 531 b 542 538 540 481 542 510 b 281 949 542 699 486 949 b 122 886 215 949 172 924 l 90 926 b 279 1001 146 975 206 1001 b 596 510 533 1001 596 711 "},"∑":{"ha":824,"x_min":0,"x_max":0,"o":"m 44 -297 l 44 -246 l 513 401 l 64 1040 l 64 1092 l 763 1092 l 763 1036 l 139 1036 l 583 401 l 114 -242 l 779 -242 l 779 -297 "},"∏":{"ha":978,"x_min":0,"x_max":0,"o":"m 808 -297 l 808 1036 l 169 1036 l 169 -297 l 111 -297 l 111 1092 l 867 1092 l 867 -297 "},"π":{"ha":772,"x_min":0,"x_max":0,"o":"m 732 14 b 658 -7 708 3 686 -7 b 563 140 563 -7 563 67 l 563 597 l 172 597 l 172 0 l 114 0 l 114 597 l 17 597 l 17 650 l 725 650 l 725 597 l 621 597 l 621 122 b 674 46 621 82 624 46 b 732 63 694 46 714 51 "},"∫":{"ha":742,"x_min":0,"x_max":0,"o":"m 528 1038 b 489 999 528 1014 511 999 b 428 1046 440 999 449 1046 b 369 754 360 1046 369 790 l 369 65 b 222 -297 369 -42 385 -297 b 158 -243 190 -297 158 -281 b 197 -207 158 -222 176 -207 b 256 -249 231 -207 235 -249 b 311 -29 300 -249 311 -112 l 311 28 l 311 711 b 456 1092 311 818 282 1092 b 528 1038 489 1092 528 1078 "},"Ω":{"ha":1019,"x_min":0,"x_max":0,"o":"m 610 0 l 610 236 b 878 579 786 263 878 410 b 503 947 878 790 713 947 b 131 579 296 947 131 786 b 400 236 131 413 225 258 l 400 0 l 72 0 l 72 53 l 350 53 l 350 193 b 72 579 171 246 72 396 b 504 1001 72 819 267 1001 b 936 579 742 1001 936 818 b 661 193 936 399 839 242 l 661 53 l 936 53 l 936 0 "},"√":{"ha":651,"x_min":0,"x_max":0,"o":"m 364 -300 l 308 -300 l 65 200 l 3 169 l -18 214 l 90 267 l 328 -228 l 606 1088 l 660 1088 "},"≈":{"ha":824,"x_min":0,"x_max":0,"o":"m 764 310 b 603 143 749 225 699 143 b 211 247 486 143 311 247 b 90 132 146 247 101 192 l 46 132 b 208 300 65 218 107 300 b 601 196 328 300 493 196 b 722 310 669 196 707 249 m 764 535 b 603 369 749 450 699 369 b 210 474 486 369 311 474 b 90 358 143 474 101 418 l 46 358 b 208 525 65 444 107 525 b 601 422 324 525 494 422 b 722 535 668 422 707 475 "},"∆":{"ha":900,"x_min":0,"x_max":0,"o":"m 447 924 l 103 57 l 794 57 m 21 0 l 418 989 l 479 989 l 882 0 "},"◊":{"ha":824,"x_min":0,"x_max":0,"o":"m 411 969 l 210 494 l 411 19 l 613 494 m 438 -49 l 383 -49 l 150 494 l 383 1038 l 438 1038 l 672 494 "},"":{"ha":308,"x_min":0,"x_max":0,"o":"m 128 -69 l 196 -69 l 196 -215 b 115 -306 196 -283 160 -303 l 115 -275 b 156 -222 143 -269 156 -257 l 126 -222 "},"Ā":{"ha":953,"x_min":0,"x_max":0,"o":"m 228 375 l 725 375 l 476 919 m 440 992 l 513 992 l 968 0 l 896 0 l 750 319 l 203 319 l 57 0 l -15 0 m 213 1189 l 743 1189 l 743 1142 l 213 1142 "},"Ă":{"ha":953,"x_min":0,"x_max":0,"o":"m 228 375 l 725 375 l 476 919 m 440 992 l 513 992 l 968 0 l 896 0 l 750 319 l 203 319 l 57 0 l -15 0 m 303 1247 b 475 1132 324 1154 388 1132 b 647 1247 563 1132 626 1154 l 694 1247 b 475 1085 679 1126 586 1085 b 256 1247 364 1085 271 1126 "},"Ą":{"ha":953,"x_min":0,"x_max":0,"o":"m 1026 -240 b 883 -264 994 -253 938 -264 b 751 -164 793 -264 751 -224 b 813 -56 751 -119 779 -83 b 896 0 847 -28 874 -12 l 750 319 l 203 319 l 57 0 l -15 0 l 440 992 l 513 992 l 968 0 l 940 0 b 807 -156 890 -35 807 -92 b 897 -225 807 -207 840 -225 b 1010 -206 946 -225 976 -218 m 228 375 l 725 375 l 476 919 "},"Ć":{"ha":1106,"x_min":0,"x_max":0,"o":"m 1056 376 b 568 -22 1033 188 864 -22 b 40 496 268 -22 40 168 b 568 1014 40 736 204 1014 b 1039 681 807 1014 988 903 l 975 681 b 568 958 926 871 756 958 b 104 496 285 958 104 746 b 568 33 104 247 264 33 b 992 376 788 33 954 161 m 790 1264 l 572 1067 l 510 1067 l 710 1264 "},"Ĉ":{"ha":1106,"x_min":0,"x_max":0,"o":"m 1056 376 b 568 -22 1033 188 864 -22 b 40 496 268 -22 40 168 b 568 1014 40 736 204 1014 b 1039 681 807 1014 988 903 l 975 681 b 568 958 926 871 756 958 b 104 496 285 958 104 746 b 568 33 104 247 264 33 b 992 376 788 33 954 161 m 740 1067 l 560 1225 l 379 1067 l 306 1067 l 521 1264 l 599 1264 l 814 1067 "},"Č":{"ha":1106,"x_min":0,"x_max":0,"o":"m 1056 376 b 568 -22 1033 188 864 -22 b 40 496 268 -22 40 168 b 568 1014 40 736 204 1014 b 1039 681 807 1014 988 903 l 975 681 b 568 958 926 871 756 958 b 104 496 285 958 104 746 b 568 33 104 247 264 33 b 992 376 788 33 954 161 m 815 1264 l 600 1067 l 522 1067 l 307 1264 l 381 1264 l 561 1106 l 742 1264 "},"Ċ":{"ha":1106,"x_min":0,"x_max":0,"o":"m 1056 376 b 568 -22 1033 188 864 -22 b 40 496 268 -22 40 168 b 568 1014 40 736 204 1014 b 1039 681 807 1014 988 903 l 975 681 b 568 958 926 871 756 958 b 104 496 285 958 104 746 b 568 33 104 247 264 33 b 992 376 788 33 954 161 m 528 1239 l 592 1239 l 592 1092 l 528 1092 "},"Ď":{"ha":1054,"x_min":0,"x_max":0,"o":"m 147 56 l 549 56 b 928 496 767 56 928 190 b 533 936 928 810 768 936 l 147 936 m 83 992 l 547 992 b 992 496 782 992 992 879 b 536 0 992 206 844 0 l 83 0 m 718 1264 l 503 1067 l 425 1067 l 210 1264 l 283 1264 l 464 1106 l 644 1264 "},"Ě":{"ha":900,"x_min":0,"x_max":0,"o":"m 83 992 l 867 992 l 867 936 l 147 936 l 147 542 l 838 542 l 838 486 l 147 486 l 147 56 l 875 56 l 875 0 l 83 0 m 732 1264 l 517 1067 l 439 1067 l 224 1264 l 297 1264 l 478 1106 l 658 1264 "},"Ē":{"ha":900,"x_min":0,"x_max":0,"o":"m 83 992 l 867 992 l 867 936 l 147 936 l 147 542 l 838 542 l 838 486 l 147 486 l 147 56 l 875 56 l 875 0 l 83 0 m 217 1189 l 747 1189 l 747 1142 l 217 1142 "},"Ĕ":{"ha":900,"x_min":0,"x_max":0,"o":"m 83 992 l 867 992 l 867 936 l 147 936 l 147 542 l 838 542 l 838 486 l 147 486 l 147 56 l 875 56 l 875 0 l 83 0 m 297 1247 b 469 1132 318 1154 382 1132 b 642 1247 557 1132 621 1154 l 689 1247 b 469 1085 674 1126 581 1085 b 250 1247 358 1085 265 1126 "},"Ė":{"ha":900,"x_min":0,"x_max":0,"o":"m 83 992 l 867 992 l 867 936 l 147 936 l 147 542 l 838 542 l 838 486 l 147 486 l 147 56 l 875 56 l 875 0 l 83 0 m 446 1239 l 510 1239 l 510 1092 l 446 1092 "},"Ę":{"ha":900,"x_min":0,"x_max":0,"o":"m 876 -240 b 733 -264 844 -253 788 -264 b 601 -164 643 -264 601 -224 b 663 -56 601 -119 629 -83 b 746 0 697 -28 724 -12 l 83 0 l 83 992 l 867 992 l 867 936 l 147 936 l 147 542 l 838 542 l 838 486 l 147 486 l 147 56 l 875 56 l 875 0 l 790 0 b 657 -156 740 -35 657 -92 b 747 -225 657 -207 690 -225 b 860 -206 796 -225 826 -218 "},"Ĝ":{"ha":1157,"x_min":0,"x_max":0,"o":"m 611 494 l 1074 494 l 1074 0 l 1018 0 l 1018 244 l 1015 244 b 582 -22 942 67 772 -22 b 54 496 282 -22 54 168 b 582 1014 54 736 218 1014 b 1053 681 825 1014 1006 894 l 989 681 b 582 958 947 864 781 958 b 118 496 299 958 118 746 b 582 33 118 247 278 33 b 1010 439 832 33 994 188 l 611 439 m 753 1067 l 572 1225 l 392 1067 l 318 1067 l 533 1264 l 611 1264 l 826 1067 "},"Ğ":{"ha":1157,"x_min":0,"x_max":0,"o":"m 611 494 l 1074 494 l 1074 0 l 1018 0 l 1018 244 l 1015 244 b 582 -22 942 67 772 -22 b 54 496 282 -22 54 168 b 582 1014 54 736 218 1014 b 1053 681 825 1014 1006 894 l 989 681 b 582 958 947 864 781 958 b 118 496 299 958 118 746 b 582 33 118 247 278 33 b 1010 439 832 33 994 188 l 611 439 m 404 1247 b 576 1132 425 1154 489 1132 b 749 1247 664 1132 728 1154 l 796 1247 b 576 1085 781 1126 688 1085 b 357 1247 465 1085 372 1126 "},"Ġ":{"ha":1157,"x_min":0,"x_max":0,"o":"m 611 494 l 1074 494 l 1074 0 l 1018 0 l 1018 244 l 1015 244 b 582 -22 942 67 772 -22 b 54 496 282 -22 54 168 b 582 1014 54 736 218 1014 b 1053 681 825 1014 1006 894 l 989 681 b 582 958 947 864 781 958 b 118 496 299 958 118 746 b 582 33 118 247 278 33 b 1010 439 832 33 994 188 l 611 439 m 539 1239 l 603 1239 l 603 1092 l 539 1092 "},"Ģ":{"ha":1157,"x_min":0,"x_max":0,"o":"m 611 494 l 1074 494 l 1074 0 l 1018 0 l 1018 244 l 1015 244 b 582 -22 942 67 772 -22 b 54 496 282 -22 54 168 b 582 1014 54 736 218 1014 b 1053 681 825 1014 1006 894 l 989 681 b 582 958 947 864 781 958 b 118 496 299 958 118 746 b 582 33 118 247 278 33 b 1010 439 832 33 994 188 l 611 439 m 542 -69 l 610 -69 l 610 -215 b 529 -306 610 -283 574 -303 l 529 -275 b 569 -222 557 -269 569 -257 l 540 -222 "},"Ĥ":{"ha":1054,"x_min":0,"x_max":0,"o":"m 83 992 l 147 992 l 147 550 l 907 550 l 907 992 l 971 992 l 971 0 l 907 0 l 907 494 l 147 494 l 147 0 l 83 0 m 700 1067 l 519 1225 l 339 1067 l 265 1067 l 481 1264 l 558 1264 l 774 1067 "},"Ħ":{"ha":1054,"x_min":0,"x_max":0,"o":"m 83 992 l 147 992 l 147 733 l 907 733 l 907 992 l 971 992 l 971 0 l 907 0 l 907 494 l 147 494 l 147 0 l 83 0 m 907 550 l 907 686 l 147 686 l 147 550 "},"Ĩ":{"ha":231,"x_min":0,"x_max":0,"o":"m 83 992 l 147 992 l 147 0 l 83 0 m -126 1104 b 4 1226 -119 1165 -69 1226 b 125 1189 49 1226 88 1210 b 233 1151 163 1171 196 1151 b 310 1226 290 1151 303 1199 l 357 1226 b 319 1142 353 1194 340 1165 b 238 1104 299 1119 272 1104 b 111 1142 189 1104 149 1124 b 0 1179 74 1163 39 1179 b -79 1104 -44 1179 -75 1143 "},"Ī":{"ha":231,"x_min":0,"x_max":0,"o":"m 83 992 l 147 992 l 147 0 l 83 0 m -150 1189 l 381 1189 l 381 1142 l -150 1142 "},"İ":{"ha":231,"x_min":0,"x_max":0,"o":"m 83 992 l 147 992 l 147 0 l 83 0 m 83 1239 l 147 1239 l 147 1092 l 83 1092 "},"Į":{"ha":231,"x_min":0,"x_max":0,"o":"m 221 -240 b 99 -264 193 -253 144 -264 b -14 -164 21 -264 -14 -224 b 39 -56 -14 -119 10 -83 b 110 0 68 -28 89 -12 l 83 0 l 83 992 l 147 992 l 147 0 b 33 -156 104 -35 33 -90 b 110 -225 33 -207 61 -225 b 206 -206 153 -225 178 -218 "},"Ĵ":{"ha":746,"x_min":0,"x_max":0,"o":"m 97 317 l 97 293 b 351 33 97 204 118 33 b 599 293 522 33 599 122 l 599 992 l 663 992 l 663 299 b 351 -22 663 82 544 -22 b 33 293 190 -22 33 47 l 33 317 m 807 1067 l 626 1225 l 446 1067 l 372 1067 l 588 1264 l 665 1264 l 881 1067 "},"Ķ":{"ha":978,"x_min":0,"x_max":0,"o":"m 83 992 l 147 992 l 147 422 l 861 992 l 963 992 l 449 582 l 999 0 l 910 0 l 399 542 l 147 342 l 147 0 l 83 0 m 472 -69 l 540 -69 l 540 -215 b 460 -306 540 -283 504 -303 l 460 -275 b 500 -222 488 -269 500 -257 l 471 -222 "},"Ĺ":{"ha":797,"x_min":0,"x_max":0,"o":"m 83 992 l 147 992 l 147 56 l 797 56 l 797 0 l 83 0 m 364 1264 l 146 1067 l 83 1067 l 283 1264 "},"Ľ":{"ha":797,"x_min":0,"x_max":0,"o":"m 83 992 l 147 992 l 147 56 l 797 56 l 797 0 l 83 0 m 390 992 l 318 794 l 275 794 l 321 992 "},"Ļ":{"ha":797,"x_min":0,"x_max":0,"o":"m 83 992 l 147 992 l 147 56 l 797 56 l 797 0 l 83 0 m 401 -69 l 469 -69 l 469 -215 b 389 -306 469 -283 433 -303 l 389 -275 b 429 -222 417 -269 429 -257 l 400 -222 "},"Ń":{"ha":1054,"x_min":0,"x_max":0,"o":"m 83 992 l 164 992 l 904 89 l 907 89 l 907 992 l 971 992 l 971 0 l 890 0 l 150 903 l 147 903 l 147 0 l 83 0 m 742 1264 l 524 1067 l 461 1067 l 661 1264 "},"Ň":{"ha":1054,"x_min":0,"x_max":0,"o":"m 83 992 l 164 992 l 904 89 l 907 89 l 907 992 l 971 992 l 971 0 l 890 0 l 150 903 l 147 903 l 147 0 l 83 0 m 771 1264 l 556 1067 l 478 1067 l 263 1264 l 336 1264 l 517 1106 l 697 1264 "},"Ņ":{"ha":1054,"x_min":0,"x_max":0,"o":"m 83 992 l 164 992 l 904 89 l 907 89 l 907 992 l 971 992 l 971 0 l 890 0 l 150 903 l 147 903 l 147 0 l 83 0 m 481 -69 l 549 -69 l 549 -215 b 468 -306 549 -283 513 -303 l 468 -275 b 508 -222 496 -269 508 -257 l 479 -222 "},"Ō":{"ha":1133,"x_min":0,"x_max":0,"o":"m 40 496 b 567 1014 40 689 164 1014 b 1093 496 968 1014 1093 689 b 567 -22 1093 303 968 -22 b 40 496 165 -22 40 303 m 104 496 b 567 33 104 258 268 33 b 1029 496 865 33 1029 258 b 567 958 1029 733 865 958 b 104 496 268 958 104 733 m 307 1189 l 838 1189 l 838 1142 l 307 1142 "},"Ŏ":{"ha":1133,"x_min":0,"x_max":0,"o":"m 40 496 b 567 1014 40 689 164 1014 b 1093 496 968 1014 1093 689 b 567 -22 1093 303 968 -22 b 40 496 165 -22 40 303 m 104 496 b 567 33 104 258 268 33 b 1029 496 865 33 1029 258 b 567 958 1029 733 865 958 b 104 496 268 958 104 733 m 393 1247 b 565 1132 414 1154 478 1132 b 738 1247 653 1132 717 1154 l 785 1247 b 565 1085 769 1126 676 1085 b 346 1247 454 1085 361 1126 "},"Ő":{"ha":1133,"x_min":0,"x_max":0,"o":"m 40 496 b 567 1014 40 689 164 1014 b 1093 496 968 1014 1093 689 b 567 -22 1093 303 968 -22 b 40 496 165 -22 40 303 m 104 496 b 567 33 104 258 268 33 b 1029 496 865 33 1029 258 b 567 958 1029 733 865 958 b 104 496 268 958 104 733 m 949 1264 l 731 1067 l 668 1067 l 868 1264 m 679 1264 l 461 1067 l 399 1067 l 599 1264 "},"Ŕ":{"ha":978,"x_min":0,"x_max":0,"o":"m 147 507 l 579 507 b 861 733 642 507 861 507 b 596 936 861 894 736 936 l 147 936 m 83 992 l 590 992 b 925 729 781 992 925 936 b 722 483 925 624 863 517 l 722 481 b 908 275 844 465 907 382 b 936 0 913 92 918 38 l 872 0 b 844 231 854 17 849 79 b 589 451 840 403 785 451 l 147 451 l 147 0 l 83 0 m 681 1264 l 463 1067 l 400 1067 l 600 1264 "},"Ř":{"ha":978,"x_min":0,"x_max":0,"o":"m 147 507 l 579 507 b 861 733 642 507 861 507 b 596 936 861 894 736 936 l 147 936 m 83 992 l 590 992 b 925 729 781 992 925 936 b 722 483 925 624 863 517 l 722 481 b 908 275 844 465 907 382 b 936 0 913 92 918 38 l 872 0 b 844 231 854 17 849 79 b 589 451 840 403 785 451 l 147 451 l 147 0 l 83 0 m 713 1264 l 497 1067 l 419 1067 l 204 1264 l 278 1264 l 458 1106 l 639 1264 "},"Ŗ":{"ha":978,"x_min":0,"x_max":0,"o":"m 147 507 l 579 507 b 861 733 642 507 861 507 b 596 936 861 894 736 936 l 147 936 m 83 992 l 590 992 b 925 729 781 992 925 936 b 722 483 925 624 863 517 l 722 481 b 908 275 844 465 907 382 b 936 0 913 92 918 38 l 872 0 b 844 231 854 17 849 79 b 589 451 840 403 785 451 l 147 451 l 147 0 l 83 0 m 464 -69 l 532 -69 l 532 -215 b 451 -306 532 -283 496 -303 l 451 -275 b 492 -222 479 -269 492 -257 l 463 -222 "},"Ś":{"ha":926,"x_min":0,"x_max":0,"o":"m 103 328 b 483 33 104 143 217 33 b 815 254 728 33 815 138 b 554 458 815 367 761 414 l 369 497 b 69 757 151 542 69 608 b 444 1014 69 906 200 1014 b 860 711 694 1014 853 922 l 796 711 b 463 958 789 825 722 958 b 142 756 221 958 142 869 b 376 560 142 650 188 597 l 581 519 b 888 258 779 479 888 417 b 489 -22 888 124 799 -22 b 39 328 163 -22 39 117 m 690 1264 l 472 1067 l 410 1067 l 610 1264 "},"Ŝ":{"ha":926,"x_min":0,"x_max":0,"o":"m 103 328 b 483 33 104 143 217 33 b 815 254 728 33 815 138 b 554 458 815 367 761 414 l 369 497 b 69 757 151 542 69 608 b 444 1014 69 906 200 1014 b 860 711 694 1014 853 922 l 796 711 b 463 958 789 825 722 958 b 142 756 221 958 142 869 b 376 560 142 650 188 597 l 581 519 b 888 258 779 479 888 417 b 489 -22 888 124 799 -22 b 39 328 163 -22 39 117 m 647 1067 l 467 1225 l 286 1067 l 213 1067 l 428 1264 l 506 1264 l 721 1067 "},"Ş":{"ha":926,"x_min":0,"x_max":0,"o":"m 103 328 b 483 33 104 143 217 33 b 815 254 728 33 815 138 b 554 458 815 367 761 414 l 369 497 b 69 757 151 542 69 608 b 444 1014 69 906 200 1014 b 860 711 694 1014 853 922 l 796 711 b 463 958 789 825 722 958 b 142 756 221 958 142 869 b 376 560 142 650 188 597 l 581 519 b 888 258 779 479 888 417 b 489 -22 888 124 799 -22 l 475 -22 l 425 -76 l 428 -79 b 489 -71 454 -74 474 -71 b 607 -158 544 -71 607 -99 b 453 -264 607 -236 521 -264 b 299 -239 407 -264 342 -251 l 313 -200 b 438 -225 346 -212 403 -225 b 551 -162 463 -225 551 -225 b 467 -110 551 -119 501 -110 b 385 -126 426 -110 406 -117 l 361 -106 l 431 -21 b 281 3 374 -17 324 -10 b 39 328 108 53 39 168 "},"Ș":{"ha":926,"x_min":0,"x_max":0,"o":"m 103 328 b 483 33 104 143 217 33 b 815 254 728 33 815 138 b 554 458 815 367 761 414 l 369 497 b 69 757 151 542 69 608 b 444 1014 69 906 200 1014 b 860 711 694 1014 853 922 l 796 711 b 463 958 789 825 722 958 b 142 756 221 958 142 869 b 376 560 142 650 188 597 l 581 519 b 888 258 779 479 888 417 b 489 -22 888 124 799 -22 b 39 328 163 -22 39 117 m 440 -69 l 508 -69 l 508 -215 b 428 -306 508 -283 472 -303 l 428 -275 b 468 -222 456 -269 468 -257 l 439 -222 "},"Ť":{"ha":822,"x_min":0,"x_max":0,"o":"m -21 992 l 843 992 l 843 936 l 443 936 l 443 0 l 379 0 l 379 936 l -21 936 m 665 1264 l 450 1067 l 372 1067 l 157 1264 l 231 1264 l 411 1106 l 592 1264 "},"Ţ":{"ha":822,"x_min":0,"x_max":0,"o":"m -21 992 l 843 992 l 843 936 l 443 936 l 443 0 l 379 0 l 379 936 l -21 936 m 376 -69 l 444 -69 l 444 -215 b 364 -306 444 -283 408 -303 l 364 -275 b 404 -222 392 -269 404 -257 l 375 -222 "},"Ŧ":{"ha":822,"x_min":0,"x_max":0,"o":"m 114 619 l 379 619 l 379 936 l -21 936 l -21 992 l 843 992 l 843 936 l 443 936 l 443 619 l 708 619 l 708 572 l 443 572 l 443 0 l 379 0 l 379 572 l 114 572 "},"Ũ":{"ha":1028,"x_min":0,"x_max":0,"o":"m 75 992 l 139 992 l 139 369 b 514 33 139 158 240 33 b 889 369 788 33 889 158 l 889 992 l 953 992 l 953 367 b 514 -22 953 110 807 -22 b 75 367 221 -22 75 110 m 269 1104 b 400 1226 276 1165 326 1226 b 521 1189 444 1226 483 1210 b 629 1151 558 1171 592 1151 b 706 1226 686 1151 699 1199 l 753 1226 b 715 1142 749 1194 736 1165 b 633 1104 694 1119 668 1104 b 507 1142 585 1104 544 1124 b 396 1179 469 1163 435 1179 b 317 1104 351 1179 321 1143 "},"Ū":{"ha":1028,"x_min":0,"x_max":0,"o":"m 75 992 l 139 992 l 139 369 b 514 33 139 158 240 33 b 889 369 788 33 889 158 l 889 992 l 953 992 l 953 367 b 514 -22 953 110 807 -22 b 75 367 221 -22 75 110 m 243 1189 l 774 1189 l 774 1142 l 243 1142 "},"Ŭ":{"ha":1028,"x_min":0,"x_max":0,"o":"m 75 992 l 139 992 l 139 369 b 514 33 139 158 240 33 b 889 369 788 33 889 158 l 889 992 l 953 992 l 953 367 b 514 -22 953 110 807 -22 b 75 367 221 -22 75 110 m 339 1247 b 511 1132 360 1154 424 1132 b 683 1247 599 1132 663 1154 l 731 1247 b 511 1085 715 1126 622 1085 b 292 1247 400 1085 307 1126 "},"Ů":{"ha":1028,"x_min":0,"x_max":0,"o":"m 75 992 l 139 992 l 139 369 b 514 33 139 158 240 33 b 889 369 788 33 889 158 l 889 992 l 953 992 l 953 367 b 514 -22 953 110 807 -22 b 75 367 221 -22 75 110 m 404 1194 b 510 1089 404 1135 450 1089 b 615 1194 569 1089 615 1135 b 510 1300 615 1254 569 1300 b 404 1194 450 1300 404 1254 m 357 1194 b 510 1347 357 1279 425 1347 b 663 1194 594 1347 663 1279 b 510 1042 663 1110 594 1042 b 357 1194 425 1042 357 1110 "},"Ű":{"ha":1028,"x_min":0,"x_max":0,"o":"m 75 992 l 139 992 l 139 369 b 514 33 139 158 240 33 b 889 369 788 33 889 158 l 889 992 l 953 992 l 953 367 b 514 -22 953 110 807 -22 b 75 367 221 -22 75 110 m 874 1264 l 656 1067 l 593 1067 l 793 1264 m 604 1264 l 386 1067 l 324 1067 l 524 1264 "},"Ų":{"ha":1028,"x_min":0,"x_max":0,"o":"m 656 -240 b 513 -264 624 -253 567 -264 b 381 -164 422 -264 381 -224 b 488 -22 381 -97 447 -47 b 185 75 354 -18 253 14 b 75 367 111 140 75 238 l 75 992 l 139 992 l 139 369 b 514 33 139 158 240 33 b 889 369 788 33 889 158 l 889 992 l 953 992 l 953 367 b 843 75 953 238 917 140 b 538 -22 774 14 672 -18 b 528 -29 533 -25 531 -28 b 436 -156 481 -65 436 -107 b 526 -225 436 -207 469 -225 b 639 -206 575 -225 606 -218 "},"Ŵ":{"ha":1414,"x_min":0,"x_max":0,"o":"m -21 992 l 51 992 l 346 89 l 349 89 l 667 992 l 747 992 l 1065 89 l 1068 89 l 1363 992 l 1435 992 l 1108 0 l 1028 0 l 708 903 l 706 903 l 386 0 l 306 0 m 888 1067 l 707 1225 l 526 1067 l 453 1067 l 668 1264 l 746 1264 l 961 1067 "},"Ŷ":{"ha":928,"x_min":0,"x_max":0,"o":"m -28 992 l 61 992 l 464 476 l 875 992 l 956 992 l 496 417 l 496 0 l 432 0 l 432 417 m 646 1067 l 465 1225 l 285 1067 l 211 1067 l 426 1264 l 504 1264 l 719 1067 "},"Ź":{"ha":849,"x_min":0,"x_max":0,"o":"m -7 68 l 772 936 l 39 936 l 39 992 l 844 992 l 844 928 l 65 56 l 856 56 l 856 0 l -7 0 m 649 1264 l 431 1067 l 368 1067 l 568 1264 "},"Ż":{"ha":849,"x_min":0,"x_max":0,"o":"m -7 68 l 772 936 l 39 936 l 39 992 l 844 992 l 844 928 l 65 56 l 856 56 l 856 0 l -7 0 m 399 1239 l 463 1239 l 463 1092 l 399 1092 "},"ā":{"ha":824,"x_min":0,"x_max":0,"o":"m 68 492 b 399 733 90 671 185 733 b 725 525 604 733 725 685 l 725 126 b 772 42 725 74 724 42 b 835 53 792 42 813 46 l 835 -3 b 757 -14 814 -10 789 -14 b 669 142 669 -14 669 47 l 667 142 b 328 -22 589 -4 421 -22 b 36 194 267 -22 36 -22 b 304 399 36 339 160 392 l 553 415 b 661 517 626 419 661 431 b 397 678 661 613 607 678 b 132 492 210 678 150 619 m 661 397 l 658 397 b 544 360 643 381 606 364 l 304 343 b 100 194 186 336 100 300 b 332 33 100 50 247 33 b 661 267 474 33 661 96 m 153 954 l 683 954 l 683 907 l 153 907 "},"ă":{"ha":824,"x_min":0,"x_max":0,"o":"m 68 492 b 399 733 90 671 185 733 b 725 525 604 733 725 685 l 725 126 b 772 42 725 74 724 42 b 835 53 792 42 813 46 l 835 -3 b 757 -14 814 -10 789 -14 b 669 142 669 -14 669 47 l 667 142 b 328 -22 589 -4 421 -22 b 36 194 267 -22 36 -22 b 304 399 36 339 160 392 l 553 415 b 661 517 626 419 661 431 b 397 678 661 613 607 678 b 132 492 210 678 150 619 m 661 397 l 658 397 b 544 360 643 381 606 364 l 304 343 b 100 194 186 336 100 300 b 332 33 100 50 247 33 b 661 267 474 33 661 96 m 229 1013 b 401 897 250 919 314 897 b 574 1013 489 897 553 919 l 621 1013 b 401 850 606 892 513 850 b 182 1013 290 850 197 892 "},"ą":{"ha":824,"x_min":0,"x_max":0,"o":"m 835 -240 b 692 -264 803 -253 746 -264 b 560 -164 601 -264 560 -224 b 667 -22 560 -97 626 -47 b 703 0 679 -14 692 -7 b 681 28 693 7 685 15 b 669 142 669 56 669 93 l 667 142 b 328 -22 589 -4 421 -22 b 36 194 267 -22 36 -22 b 304 399 36 339 160 392 l 553 415 b 661 517 626 419 661 431 b 397 678 661 613 607 678 b 132 492 210 678 150 619 l 68 492 b 399 733 90 671 185 733 b 725 525 604 733 725 685 l 725 126 b 772 42 725 74 724 42 b 835 53 792 42 813 46 l 835 -3 b 757 -14 814 -10 789 -14 b 731 -11 747 -14 738 -12 b 707 -29 724 -17 715 -22 b 615 -156 660 -65 615 -107 b 706 -225 615 -207 649 -225 b 818 -206 754 -225 785 -218 m 661 397 l 658 397 b 544 360 643 381 606 364 l 304 343 b 100 194 186 336 100 300 b 332 33 100 50 247 33 b 661 267 474 33 661 96 "},"ć":{"ha":849,"x_min":0,"x_max":0,"o":"m 739 488 b 438 678 732 576 608 678 b 100 349 211 678 100 518 b 438 33 100 233 181 33 b 749 249 582 33 715 101 l 813 249 b 438 -22 775 63 615 -22 b 36 349 204 -22 36 128 b 438 733 36 599 219 733 b 803 488 654 733 796 608 m 679 1029 l 461 832 l 399 832 l 599 1029 "},"ĉ":{"ha":849,"x_min":0,"x_max":0,"o":"m 739 488 b 438 678 732 576 608 678 b 100 349 211 678 100 518 b 438 33 100 233 181 33 b 749 249 582 33 715 101 l 813 249 b 438 -22 775 63 615 -22 b 36 349 204 -22 36 128 b 438 733 36 599 219 733 b 803 488 654 733 796 608 m 618 832 l 438 990 l 257 832 l 183 832 l 399 1029 l 476 1029 l 692 832 "},"č":{"ha":849,"x_min":0,"x_max":0,"o":"m 739 488 b 438 678 732 576 608 678 b 100 349 211 678 100 518 b 438 33 100 233 181 33 b 749 249 582 33 715 101 l 813 249 b 438 -22 775 63 615 -22 b 36 349 204 -22 36 128 b 438 733 36 599 219 733 b 803 488 654 733 796 608 m 690 1029 l 475 832 l 397 832 l 182 1029 l 256 1029 l 436 871 l 617 1029 "},"ċ":{"ha":849,"x_min":0,"x_max":0,"o":"m 739 488 b 438 678 732 576 608 678 b 100 349 211 678 100 518 b 438 33 100 233 181 33 b 749 249 582 33 715 101 l 813 249 b 438 -22 775 63 615 -22 b 36 349 204 -22 36 128 b 438 733 36 599 219 733 b 803 488 654 733 796 608 m 404 1004 l 468 1004 l 468 857 l 404 857 "},"ď":{"ha":932,"x_min":0,"x_max":0,"o":"m 408 33 b 742 349 675 33 742 221 b 417 678 742 599 561 678 b 100 358 253 678 100 575 b 408 33 100 154 232 33 m 733 156 l 731 156 b 415 -22 697 71 599 -22 b 36 357 165 -22 36 157 b 415 733 36 583 199 733 b 731 560 590 733 690 638 l 733 560 l 733 992 l 797 992 l 797 0 l 733 0 m 979 992 l 907 794 l 864 794 l 910 992 "},"đ":{"ha":922,"x_min":0,"x_max":0,"o":"m 733 156 l 731 156 b 415 -22 697 71 599 -22 b 36 357 165 -22 36 157 b 415 733 36 583 199 733 b 731 560 590 733 690 638 l 733 560 l 733 814 l 447 814 l 447 861 l 733 861 l 733 992 l 797 992 l 797 861 l 936 861 l 936 814 l 797 814 l 797 0 l 733 0 m 408 33 b 742 349 675 33 742 221 b 417 678 742 599 561 678 b 100 358 253 678 100 575 b 408 33 100 154 232 33 "},"ě":{"ha":849,"x_min":0,"x_max":0,"o":"m 753 397 b 426 678 726 592 589 678 b 100 397 242 678 128 568 m 100 342 b 439 33 104 164 224 33 b 742 236 661 33 715 174 l 806 236 b 432 -22 746 57 622 -22 b 36 361 189 -22 36 124 b 433 733 36 510 129 733 b 825 342 682 733 821 569 m 694 1029 l 479 832 l 401 832 l 186 1029 l 260 1029 l 440 871 l 621 1029 "},"ē":{"ha":849,"x_min":0,"x_max":0,"o":"m 753 397 b 426 678 726 592 589 678 b 100 397 242 678 128 568 m 100 342 b 439 33 104 164 224 33 b 742 236 661 33 715 174 l 806 236 b 432 -22 746 57 622 -22 b 36 361 189 -22 36 124 b 433 733 36 510 129 733 b 825 342 682 733 821 569 m 181 954 l 711 954 l 711 907 l 181 907 "},"ĕ":{"ha":849,"x_min":0,"x_max":0,"o":"m 753 397 b 426 678 726 592 589 678 b 100 397 242 678 128 568 m 100 342 b 439 33 104 164 224 33 b 742 236 661 33 715 174 l 806 236 b 432 -22 746 57 622 -22 b 36 361 189 -22 36 124 b 433 733 36 510 129 733 b 825 342 682 733 821 569 m 263 1013 b 435 897 283 919 347 897 b 607 1013 522 897 586 919 l 654 1013 b 435 850 639 892 546 850 b 215 1013 324 850 231 892 "},"ė":{"ha":849,"x_min":0,"x_max":0,"o":"m 753 397 b 426 678 726 592 589 678 b 100 397 242 678 128 568 m 100 342 b 439 33 104 164 224 33 b 742 236 661 33 715 174 l 806 236 b 432 -22 746 57 622 -22 b 36 361 189 -22 36 124 b 433 733 36 510 129 733 b 825 342 682 733 821 569 m 400 1004 l 464 1004 l 464 857 l 400 857 "},"ę":{"ha":849,"x_min":0,"x_max":0,"o":"m 567 -240 b 424 -264 535 -253 478 -264 b 292 -164 333 -264 292 -224 b 399 -22 292 -97 358 -47 l 400 -21 b 267 4 351 -18 307 -10 b 36 361 124 57 36 183 b 433 733 36 510 129 733 b 825 342 682 733 821 569 l 100 342 b 439 33 104 164 224 33 b 742 236 661 33 715 174 l 806 236 b 668 39 776 146 731 81 b 449 -22 610 1 536 -19 b 439 -29 444 -25 442 -28 b 347 -156 392 -65 347 -107 b 438 -225 347 -207 381 -225 b 550 -206 486 -225 517 -218 m 753 397 b 426 678 726 592 589 678 b 100 397 242 678 128 568 "},"ĝ":{"ha":900,"x_min":0,"x_max":0,"o":"m 758 711 l 822 711 l 822 35 b 433 -306 822 -126 763 -306 b 65 -67 211 -306 89 -240 l 129 -67 b 433 -250 144 -179 225 -250 b 758 32 710 -250 758 -100 l 758 179 l 756 179 b 422 8 693 61 572 8 b 36 375 146 8 36 185 b 424 733 36 560 151 733 b 756 568 550 733 689 697 l 758 567 m 424 678 b 100 378 256 678 100 583 b 431 64 100 174 218 64 b 758 379 615 64 758 163 b 424 678 758 568 633 678 m 636 832 l 456 990 l 275 832 l 201 832 l 417 1029 l 494 1029 l 710 832 "},"ğ":{"ha":900,"x_min":0,"x_max":0,"o":"m 758 711 l 822 711 l 822 35 b 433 -306 822 -126 763 -306 b 65 -67 211 -306 89 -240 l 129 -67 b 433 -250 144 -179 225 -250 b 758 32 710 -250 758 -100 l 758 179 l 756 179 b 422 8 693 61 572 8 b 36 375 146 8 36 185 b 424 733 36 560 151 733 b 756 568 550 733 689 697 l 758 567 m 424 678 b 100 378 256 678 100 583 b 431 64 100 174 218 64 b 758 379 615 64 758 163 b 424 678 758 568 633 678 m 261 1013 b 433 897 282 919 346 897 b 606 1013 521 897 585 919 l 653 1013 b 433 850 638 892 544 850 b 214 1013 322 850 229 892 "},"ġ":{"ha":900,"x_min":0,"x_max":0,"o":"m 758 711 l 822 711 l 822 35 b 433 -306 822 -126 763 -306 b 65 -67 211 -306 89 -240 l 129 -67 b 433 -250 144 -179 225 -250 b 758 32 710 -250 758 -100 l 758 179 l 756 179 b 422 8 693 61 572 8 b 36 375 146 8 36 185 b 424 733 36 560 151 733 b 756 568 550 733 689 697 l 758 567 m 424 678 b 100 378 256 678 100 583 b 431 64 100 174 218 64 b 758 379 615 64 758 163 b 424 678 758 568 633 678 m 407 1004 l 471 1004 l 471 857 l 407 857 "},"ģ":{"ha":900,"x_min":0,"x_max":0,"o":"m 758 711 l 822 711 l 822 35 b 433 -306 822 -126 763 -306 b 65 -67 211 -306 89 -240 l 129 -67 b 433 -250 144 -179 225 -250 b 758 32 710 -250 758 -100 l 758 179 l 756 179 b 422 8 693 61 572 8 b 36 375 146 8 36 185 b 424 733 36 560 151 733 b 756 568 550 733 689 697 l 758 567 m 424 678 b 100 378 256 678 100 583 b 431 64 100 174 218 64 b 758 379 615 64 758 163 b 424 678 758 568 633 678 m 464 839 l 396 839 l 396 985 b 476 1075 396 1053 432 1072 l 476 1044 b 436 992 449 1038 436 1026 l 465 992 "},"ĥ":{"ha":849,"x_min":0,"x_max":0,"o":"m 78 992 l 142 992 l 142 569 l 144 569 b 444 733 189 654 283 733 b 771 439 771 733 771 524 l 771 0 l 707 0 l 707 436 b 443 678 707 581 653 678 b 142 415 232 678 142 549 l 142 0 l 78 0 m 615 1067 l 435 1225 l 254 1067 l 181 1067 l 396 1264 l 474 1264 l 689 1067 "},"ħ":{"ha":896,"x_min":0,"x_max":0,"o":"m -14 861 l 125 861 l 125 992 l 189 992 l 189 861 l 461 861 l 461 814 l 189 814 l 189 569 l 192 569 b 492 733 236 654 331 733 b 818 439 818 733 818 524 l 818 0 l 754 0 l 754 436 b 490 678 754 581 700 678 b 189 415 279 678 189 549 l 189 0 l 125 0 l 125 814 l -14 814 "},"ĩ":{"ha":231,"x_min":0,"x_max":0,"o":"m 83 711 l 147 711 l 147 0 l 83 0 m -126 869 b 4 992 -119 931 -69 992 b 125 954 49 992 88 975 b 233 917 163 936 196 917 b 310 992 290 917 303 964 l 357 992 b 319 907 353 960 340 931 b 238 869 299 885 272 869 b 111 907 189 869 149 889 b 0 944 74 928 39 944 b -79 869 -44 944 -75 908 "},"ī":{"ha":231,"x_min":0,"x_max":0,"o":"m 83 711 l 147 711 l 147 0 l 83 0 m -150 954 l 381 954 l 381 907 l -150 907 "},"į":{"ha":231,"x_min":0,"x_max":0,"o":"m 221 -240 b 99 -264 193 -253 144 -264 b -14 -164 21 -264 -14 -224 b 39 -56 -14 -119 10 -83 b 110 0 68 -28 89 -12 l 83 0 l 83 711 l 147 711 l 147 0 b 33 -156 104 -35 33 -90 b 110 -225 33 -207 61 -225 b 206 -206 153 -225 178 -218 m 83 992 l 147 992 l 147 844 l 83 844 "},"":{"ha":231,"x_min":0,"x_max":0,"o":"m 147 -128 b -36 -306 147 -251 82 -306 b -122 -297 -79 -306 -101 -301 l -122 -242 b -36 -250 -101 -246 -68 -250 b 83 -72 82 -250 83 -169 l 83 711 l 147 711 "},"ĵ":{"ha":231,"x_min":0,"x_max":0,"o":"m 147 -128 b -36 -306 147 -251 82 -306 b -122 -297 -79 -306 -101 -301 l -122 -242 b -36 -250 -101 -246 -68 -250 b 83 -72 82 -250 83 -169 l 83 711 l 147 711 m 292 832 l 111 990 l -69 832 l -143 832 l 72 1029 l 150 1029 l 365 832 "},"ķ":{"ha":772,"x_min":0,"x_max":0,"o":"m 78 992 l 142 992 l 142 333 l 649 711 l 743 711 l 383 443 l 776 0 l 689 0 l 333 403 l 142 261 l 142 0 l 78 0 m 372 -69 l 440 -69 l 440 -215 b 360 -306 440 -283 404 -303 l 360 -275 b 400 -222 388 -269 400 -257 l 371 -222 "},"ĺ":{"ha":231,"x_min":0,"x_max":0,"o":"m 83 992 l 147 992 l 147 0 l 83 0 m 364 1264 l 146 1067 l 83 1067 l 283 1264 "},"ľ":{"ha":282,"x_min":0,"x_max":0,"o":"m 83 992 l 147 992 l 147 0 l 83 0 m 329 992 l 257 794 l 214 794 l 260 992 "},"ļ":{"ha":231,"x_min":0,"x_max":0,"o":"m 83 992 l 147 992 l 147 0 l 83 0 m 81 -69 l 149 -69 l 149 -215 b 68 -306 149 -283 113 -303 l 68 -275 b 108 -222 96 -269 108 -257 l 79 -222 "},"ń":{"ha":849,"x_min":0,"x_max":0,"o":"m 78 711 l 142 711 l 142 569 l 144 569 b 444 733 189 654 283 733 b 771 439 771 733 771 524 l 771 0 l 707 0 l 707 436 b 443 678 707 581 653 678 b 142 415 232 678 142 549 l 142 0 l 78 0 m 649 1029 l 431 832 l 368 832 l 568 1029 "},"ň":{"ha":849,"x_min":0,"x_max":0,"o":"m 78 711 l 142 711 l 142 569 l 144 569 b 444 733 189 654 283 733 b 771 439 771 733 771 524 l 771 0 l 707 0 l 707 436 b 443 678 707 581 653 678 b 142 415 232 678 142 549 l 142 0 l 78 0 m 678 1029 l 463 832 l 385 832 l 169 1029 l 243 1029 l 424 871 l 604 1029 "},"ņ":{"ha":849,"x_min":0,"x_max":0,"o":"m 78 711 l 142 711 l 142 569 l 144 569 b 444 733 189 654 283 733 b 771 439 771 733 771 524 l 771 0 l 707 0 l 707 436 b 443 678 707 581 653 678 b 142 415 232 678 142 549 l 142 0 l 78 0 m 386 -69 l 454 -69 l 454 -215 b 374 -306 454 -283 418 -303 l 374 -275 b 414 -222 401 -269 414 -257 l 385 -222 "},"ŉ":{"ha":878,"x_min":0,"x_max":0,"o":"m 107 711 l 171 711 l 171 569 l 174 569 b 474 733 218 654 313 733 b 800 439 800 733 800 524 l 800 0 l 736 0 l 736 436 b 472 678 736 581 682 678 b 171 415 261 678 171 549 l 171 0 l 107 0 m 69 1144 l 138 1144 l 138 999 b 57 908 138 931 101 911 l 57 939 b 97 992 85 944 97 957 l 68 992 "},"ō":{"ha":875,"x_min":0,"x_max":0,"o":"m 36 356 b 438 733 36 554 183 733 b 839 356 692 733 839 554 b 438 -22 839 154 692 -22 b 36 356 183 -22 36 154 m 100 356 b 438 33 100 194 211 33 b 775 356 664 33 775 194 b 438 678 775 517 664 678 b 100 356 211 678 100 517 m 175 954 l 706 954 l 706 907 l 175 907 "},"ŏ":{"ha":875,"x_min":0,"x_max":0,"o":"m 36 356 b 438 733 36 554 183 733 b 839 356 692 733 839 554 b 438 -22 839 154 692 -22 b 36 356 183 -22 36 154 m 100 356 b 438 33 100 194 211 33 b 775 356 664 33 775 194 b 438 678 775 517 664 678 b 100 356 211 678 100 517 m 264 1013 b 436 897 285 919 349 897 b 608 1013 524 897 588 919 l 656 1013 b 436 850 640 892 547 850 b 217 1013 325 850 232 892 "},"ő":{"ha":875,"x_min":0,"x_max":0,"o":"m 36 356 b 438 733 36 554 183 733 b 839 356 692 733 839 554 b 438 -22 839 154 692 -22 b 36 356 183 -22 36 154 m 100 356 b 438 33 100 194 211 33 b 775 356 664 33 775 194 b 438 678 775 517 664 678 b 100 356 211 678 100 517 m 822 1029 l 604 832 l 542 832 l 742 1029 m 553 1029 l 335 832 l 272 832 l 472 1029 "},"ŕ":{"ha":489,"x_min":0,"x_max":0,"o":"m 78 711 l 142 711 l 142 543 l 144 543 b 439 733 193 669 300 733 b 492 725 460 733 471 731 l 492 661 b 418 669 476 667 458 669 b 142 385 233 669 142 529 l 142 0 l 78 0 m 363 1029 l 144 832 l 82 832 l 282 1029 "},"ŗ":{"ha":489,"x_min":0,"x_max":0,"o":"m 78 711 l 142 711 l 142 543 l 144 543 b 439 733 193 669 300 733 b 492 725 460 733 471 731 l 492 661 b 418 669 476 667 458 669 b 142 385 233 669 142 529 l 142 0 l 78 0 m 75 -69 l 143 -69 l 143 -215 b 63 -306 143 -283 107 -303 l 63 -275 b 103 -222 90 -269 103 -257 l 74 -222 "},"ř":{"ha":489,"x_min":0,"x_max":0,"o":"m 78 711 l 142 711 l 142 543 l 144 543 b 439 733 193 669 300 733 b 492 725 460 733 471 731 l 492 661 b 418 669 476 667 458 669 b 142 385 233 669 142 529 l 142 0 l 78 0 m 535 1029 l 319 832 l 242 832 l 26 1029 l 100 1029 l 281 871 l 461 1029 "},"ś":{"ha":746,"x_min":0,"x_max":0,"o":"m 625 503 b 356 678 615 621 540 678 b 124 536 182 678 124 610 b 267 415 124 458 182 426 l 493 385 b 717 190 626 367 717 318 b 376 -22 717 -3 497 -22 b 29 222 181 -22 40 44 l 93 222 b 393 33 100 150 117 33 b 653 190 581 33 653 89 b 510 319 653 274 593 308 l 260 353 b 60 532 171 364 60 404 b 358 733 60 613 117 733 b 689 503 621 733 682 614 m 611 1029 l 393 832 l 331 832 l 531 1029 "},"ŝ":{"ha":746,"x_min":0,"x_max":0,"o":"m 625 503 b 356 678 615 621 540 678 b 124 536 182 678 124 610 b 267 415 124 458 182 426 l 493 385 b 717 190 626 367 717 318 b 376 -22 717 -3 497 -22 b 29 222 181 -22 40 44 l 93 222 b 393 33 100 150 117 33 b 653 190 581 33 653 89 b 510 319 653 274 593 308 l 260 353 b 60 532 171 364 60 404 b 358 733 60 613 117 733 b 689 503 621 733 682 614 m 561 832 l 381 990 l 200 832 l 126 832 l 342 1029 l 419 1029 l 635 832 "},"ş":{"ha":746,"x_min":0,"x_max":0,"o":"m 625 503 b 356 678 615 621 540 678 b 124 536 182 678 124 610 b 267 415 124 458 182 426 l 493 385 b 717 190 626 367 717 318 b 481 -15 717 47 593 -4 b 390 -22 447 -19 417 -21 l 340 -76 l 343 -79 b 404 -71 369 -74 389 -71 b 522 -158 460 -71 522 -99 b 368 -264 522 -236 436 -264 b 214 -239 322 -264 257 -251 l 228 -200 b 353 -225 261 -212 318 -225 b 467 -162 378 -225 467 -225 b 382 -110 467 -119 417 -110 b 300 -126 342 -110 321 -117 l 276 -106 l 346 -21 b 240 -8 308 -19 272 -15 b 29 222 118 17 38 90 l 93 222 b 393 33 100 150 117 33 b 653 190 581 33 653 89 b 510 319 653 274 593 308 l 260 353 b 60 532 171 364 60 404 b 358 733 60 613 117 733 b 689 503 621 733 682 614 "},"ș":{"ha":746,"x_min":0,"x_max":0,"o":"m 625 503 b 356 678 615 621 540 678 b 124 536 182 678 124 610 b 267 415 124 458 182 426 l 493 385 b 717 190 626 367 717 318 b 376 -22 717 -3 497 -22 b 29 222 181 -22 40 44 l 93 222 b 393 33 100 150 117 33 b 653 190 581 33 653 89 b 510 319 653 274 593 308 l 260 353 b 60 532 171 364 60 404 b 358 733 60 613 117 733 b 689 503 621 733 682 614 m 346 -69 l 414 -69 l 414 -215 b 333 -306 414 -283 378 -303 l 333 -275 b 374 -222 361 -269 374 -257 l 344 -222 "},"ť":{"ha":478,"x_min":0,"x_max":0,"o":"m 147 951 l 211 951 l 211 711 l 422 711 l 422 656 l 211 656 l 211 143 b 340 42 211 56 261 42 b 429 50 369 42 400 46 l 429 -6 b 321 -14 396 -12 356 -14 b 147 178 172 -14 147 42 l 147 656 l -14 656 l -14 711 l 147 711 m 492 992 l 419 794 l 376 794 l 422 992 "},"ţ":{"ha":438,"x_min":0,"x_max":0,"o":"m 147 951 l 211 951 l 211 711 l 422 711 l 422 656 l 211 656 l 211 143 b 340 42 211 56 261 42 b 429 50 369 42 400 46 l 429 -6 b 321 -14 396 -12 356 -14 b 147 178 172 -14 147 42 l 147 656 l -14 656 l -14 711 l 147 711 m 224 -69 l 292 -69 l 292 -215 b 211 -306 292 -283 256 -303 l 211 -275 b 251 -222 239 -269 251 -257 l 222 -222 "},"ŧ":{"ha":438,"x_min":0,"x_max":0,"o":"m -28 464 l 147 464 l 147 656 l -14 656 l -14 711 l 147 711 l 147 951 l 211 951 l 211 711 l 422 711 l 422 656 l 211 656 l 211 464 l 436 464 l 436 417 l 211 417 l 211 143 b 340 42 211 56 261 42 b 385 44 356 42 369 43 l 429 50 l 429 -6 b 321 -14 396 -12 356 -14 b 147 178 172 -14 147 42 l 147 417 l -28 417 "},"ũ":{"ha":849,"x_min":0,"x_max":0,"o":"m 771 0 l 707 0 l 707 142 l 704 142 b 404 -22 660 57 565 -22 b 78 272 78 -22 78 186 l 78 711 l 142 711 l 142 275 b 406 33 142 131 196 33 b 707 296 617 33 707 163 l 707 711 l 771 711 m 179 869 b 310 992 186 931 236 992 b 431 954 354 992 393 975 b 539 917 468 936 501 917 b 615 992 596 917 608 964 l 663 992 b 625 907 658 960 646 931 b 543 869 604 885 578 869 b 417 907 494 869 454 889 b 306 944 379 928 344 944 b 226 869 261 944 231 908 "},"ū":{"ha":849,"x_min":0,"x_max":0,"o":"m 771 0 l 707 0 l 707 142 l 704 142 b 404 -22 660 57 565 -22 b 78 272 78 -22 78 186 l 78 711 l 142 711 l 142 275 b 406 33 142 131 196 33 b 707 296 617 33 707 163 l 707 711 l 771 711 m 164 954 l 694 954 l 694 907 l 164 907 "},"ŭ":{"ha":849,"x_min":0,"x_max":0,"o":"m 771 0 l 707 0 l 707 142 l 704 142 b 404 -22 660 57 565 -22 b 78 272 78 -22 78 186 l 78 711 l 142 711 l 142 275 b 406 33 142 131 196 33 b 707 296 617 33 707 163 l 707 711 l 771 711 m 249 1013 b 421 897 269 919 333 897 b 593 1013 508 897 572 919 l 640 1013 b 421 850 625 892 532 850 b 201 1013 310 850 217 892 "},"ů":{"ha":849,"x_min":0,"x_max":0,"o":"m 771 0 l 707 0 l 707 142 l 704 142 b 404 -22 660 57 565 -22 b 78 272 78 -22 78 186 l 78 711 l 142 711 l 142 275 b 406 33 142 131 196 33 b 707 296 617 33 707 163 l 707 711 l 771 711 m 315 972 b 421 867 315 913 361 867 b 526 972 481 867 526 913 b 421 1078 526 1032 481 1078 b 315 972 361 1078 315 1032 m 268 972 b 421 1125 268 1057 336 1125 b 574 972 506 1125 574 1057 b 421 819 574 888 506 819 b 268 972 336 819 268 888 "},"ű":{"ha":849,"x_min":0,"x_max":0,"o":"m 771 0 l 707 0 l 707 142 l 704 142 b 404 -22 660 57 565 -22 b 78 272 78 -22 78 186 l 78 711 l 142 711 l 142 275 b 406 33 142 131 196 33 b 707 296 617 33 707 163 l 707 711 l 771 711 m 794 1029 l 576 832 l 514 832 l 714 1029 m 525 1029 l 307 832 l 244 832 l 444 1029 "},"ų":{"ha":849,"x_min":0,"x_max":0,"o":"m 831 -240 b 694 -264 801 -253 746 -264 b 569 -164 607 -264 569 -224 b 628 -56 569 -119 594 -83 b 707 0 661 -28 685 -12 l 707 142 l 704 142 b 404 -22 660 57 565 -22 b 78 272 78 -22 78 186 l 78 711 l 142 711 l 142 275 b 406 33 142 131 196 33 b 707 296 617 33 707 163 l 707 711 l 771 711 l 771 0 l 749 0 b 622 -156 700 -36 622 -90 b 707 -225 622 -207 653 -225 b 814 -206 753 -225 782 -218 "},"ŵ":{"ha":1208,"x_min":0,"x_max":0,"o":"m 564 711 l 644 711 l 896 81 l 1144 711 l 1217 711 l 926 0 l 854 0 l 604 639 l 354 0 l 282 0 l -8 711 l 64 711 l 321 81 m 789 832 l 608 990 l 428 832 l 354 832 l 569 1029 l 647 1029 l 863 832 "},"ŷ":{"ha":721,"x_min":0,"x_max":0,"o":"m -18 711 l 54 711 l 374 71 l 667 711 l 739 711 l 347 -125 b 164 -256 311 -201 275 -256 l 75 -256 l 75 -200 l 151 -200 b 306 -72 233 -200 251 -182 l 342 0 m 553 832 l 372 990 l 192 832 l 118 832 l 333 1029 l 411 1029 l 626 832 "},"ź":{"ha":721,"x_min":0,"x_max":0,"o":"m 17 64 l 596 656 l 53 656 l 53 711 l 685 711 l 685 664 l 89 56 l 704 56 l 704 0 l 17 0 m 600 1029 l 382 832 l 319 832 l 519 1029 "},"ż":{"ha":721,"x_min":0,"x_max":0,"o":"m 17 64 l 596 656 l 53 656 l 53 711 l 685 711 l 685 664 l 89 56 l 704 56 l 704 0 l 17 0 m 342 1004 l 406 1004 l 406 857 l 342 857 "},"Ĳ":{"ha":986,"x_min":0,"x_max":0,"o":"m 83 992 l 147 992 l 147 0 l 83 0 m 338 317 l 338 293 b 592 33 338 204 358 33 b 839 293 763 33 839 122 l 839 992 l 903 992 l 903 299 b 592 -22 903 82 785 -22 b 274 293 431 -22 274 47 l 274 317 "},"ĳ":{"ha":506,"x_min":0,"x_max":0,"o":"m 83 992 l 147 992 l 147 844 l 83 844 m 83 711 l 147 711 l 147 0 l 83 0 m 358 992 l 422 992 l 422 844 l 358 844 m 422 -128 b 239 -306 422 -251 357 -306 b 153 -297 196 -306 174 -301 l 153 -242 b 239 -250 174 -246 207 -250 b 358 -72 357 -250 358 -169 l 358 711 l 422 711 "},"ŀ":{"ha":350,"x_min":0,"x_max":0,"o":"m 83 992 l 147 992 l 147 0 l 83 0 m 231 711 l 294 711 l 294 564 l 231 564 "},"Ŀ":{"ha":797,"x_min":0,"x_max":0,"o":"m 83 992 l 147 992 l 147 56 l 797 56 l 797 0 l 83 0 m 335 711 l 399 711 l 399 564 l 335 564 "},"\u0000":{"ha":694,"x_min":0,"x_max":0,"o":""},"\r":{"ha":0,"x_min":0,"x_max":0,"o":""}," ":{"ha":308,"x_min":0,"x_max":0,"o":""},"":{"ha":711,"x_min":0,"x_max":0,"o":"m 386 163 l 386 256 l 308 256 l 308 163 m 376 325 b 385 425 376 374 379 407 b 444 497 390 443 410 467 b 532 664 515 563 532 604 b 360 846 532 774 458 846 b 172 656 260 846 185 788 l 242 644 b 356 776 253 739 299 776 b 461 658 413 776 461 725 b 392 543 461 624 451 600 b 328 461 361 513 340 485 b 310 349 315 438 310 400 l 313 325 m 69 69 l 69 926 l 642 926 l 642 69 m 0 997 l 0 0 l 711 0 l 711 997 "},"­":{"ha":565,"x_min":0,"x_max":0,"o":"m 104 407 l 461 407 l 461 343 l 104 343 "},"Đ":{"ha":1054,"x_min":0,"x_max":0,"o":"m 147 542 l 517 542 l 517 486 l 147 486 l 147 56 l 549 56 b 928 496 767 56 928 190 b 533 936 928 810 768 936 l 147 936 m 83 486 l 0 486 l 0 542 l 83 542 l 83 992 l 547 992 b 992 496 782 992 992 879 b 536 0 992 206 844 0 l 83 0 "},"ˉ":{"ha":231,"x_min":0,"x_max":0,"o":"m -150 954 l 381 954 l 381 907 l -150 907 "},"∙":{"ha":308,"x_min":0,"x_max":0,"o":"m 76 444 b 154 522 76 488 111 522 b 232 444 197 522 232 488 b 154 367 232 401 197 367 b 76 444 111 367 76 401 "},"∕":{"ha":232,"x_min":0,"x_max":0,"o":"m 406 1000 l 461 1000 l -174 -22 l -229 -22 "},"Δ":{"ha":900,"x_min":0,"x_max":0,"o":"m 447 924 l 103 57 l 794 57 m 21 0 l 418 989 l 479 989 l 882 0 "},"Ω":{"ha":1019,"x_min":0,"x_max":0,"o":"m 610 0 l 610 236 b 878 579 786 263 878 410 b 503 947 878 790 713 947 b 131 579 296 947 131 786 b 400 236 131 413 225 258 l 400 0 l 72 0 l 72 53 l 350 53 l 350 193 b 72 579 171 246 72 396 b 504 1001 72 819 267 1001 b 936 579 742 1001 936 818 b 661 193 936 399 839 242 l 661 53 l 936 53 l 936 0 "},"μ":{"ha":849,"x_min":0,"x_max":0,"o":"m 771 0 l 707 0 l 707 142 l 704 142 b 404 -22 660 57 565 -22 b 144 89 244 -22 178 38 l 142 89 l 142 -281 l 78 -281 l 78 711 l 142 711 l 142 275 b 406 33 142 131 196 33 b 707 296 617 33 707 163 l 707 711 l 771 711 "},"Ț":{"ha":822,"x_min":0,"x_max":0,"o":"m -21 992 l 843 992 l 843 936 l 443 936 l 443 0 l 379 0 l 379 936 l -21 936 m 376 -69 l 444 -69 l 444 -215 b 364 -306 444 -283 408 -303 l 364 -275 b 404 -222 392 -269 404 -257 l 375 -222 "},"ț":{"ha":438,"x_min":0,"x_max":0,"o":"m 147 951 l 211 951 l 211 711 l 422 711 l 422 656 l 211 656 l 211 143 b 340 42 211 56 261 42 b 429 50 369 42 400 46 l 429 -6 b 321 -14 396 -12 356 -14 b 147 178 172 -14 147 42 l 147 656 l -14 656 l -14 711 l 147 711 m 224 -69 l 292 -69 l 292 -215 b 211 -306 292 -283 256 -303 l 211 -275 b 251 -222 239 -269 251 -257 l 222 -222 "},"ℓ":{"ha":694,"x_min":0,"x_max":0,"o":"m 550 49 b 397 -19 504 3 451 -19 b 244 146 317 -19 244 25 l 244 351 l 161 257 l 158 257 l 138 283 l 244 399 l 244 772 b 392 1001 244 926 313 1001 b 517 838 464 1001 517 943 b 293 388 517 704 435 549 l 293 154 b 406 21 293 46 356 21 b 528 75 446 21 489 36 l 531 75 l 550 49 m 475 832 b 392 964 475 913 438 964 b 293 778 342 964 293 910 l 293 436 b 475 832 407 572 475 717 "},"℮":{"ha":833,"x_min":0,"x_max":0,"o":"m 218 360 l 218 108 b 419 26 272 54 339 26 b 688 193 535 26 618 76 l 736 164 b 419 -24 651 32 565 -24 b 61 360 201 -24 61 146 b 419 743 61 575 201 743 b 779 360 633 743 778 585 m 622 410 l 622 611 b 418 694 564 667 496 694 b 218 611 339 694 272 665 l 218 410 "}}}
